<?xml version="1.0" standalone="no"?>
<!DOCTYPE svg PUBLIC "-//W3C//DTD SVG 20010904//EN"
 "http://www.w3.org/TR/2001/REC-SVG-20010904/DTD/svg10.dtd">
<svg version="1.0" xmlns="http://www.w3.org/2000/svg"
 width="955.000000pt" height="1756.000000pt" viewBox="0 0 955.000000 1756.000000"
 preserveAspectRatio="xMidYMid meet">
<metadata>
Created by potrace 1.16, written by Peter Selinger 2001-2019
</metadata>
<g transform="translate(0.000000,1756.000000) scale(0.100000,-0.100000)"
fill="#000000" stroke="none">
<path d="M4038 16680 c-9 -10 -19 -27 -22 -38 -4 -11 -14 -19 -24 -18 -9 0
-17 -6 -17 -14 0 -8 -6 -28 -12 -45 -7 -16 -21 -63 -33 -102 -23 -80 -44 -99
-34 -30 4 23 11 52 15 65 5 13 9 40 9 60 0 26 6 42 20 52 24 17 26 30 5 30 -8
0 -15 -8 -16 -17 0 -14 -3 -12 -10 5 -7 18 -14 22 -31 17 -13 -4 -31 -9 -40
-11 -10 -3 -18 -13 -18 -22 0 -12 -3 -13 -12 -4 -15 15 -48 16 -48 1 0 -8 -13
-9 -40 -5 -22 3 -48 2 -57 -2 -10 -5 -33 -17 -51 -26 -17 -10 -36 -15 -41 -11
-5 3 -15 -11 -21 -30 -7 -20 -17 -34 -23 -32 -7 2 -18 -2 -25 -10 -7 -7 -25
-13 -39 -13 -18 0 -24 -4 -20 -15 4 -8 2 -17 -3 -20 -4 -3 -10 1 -12 7 -3 9
-16 4 -40 -14 -20 -15 -38 -25 -40 -22 -3 2 -11 -2 -18 -11 -7 -8 -19 -15 -26
-15 -45 0 25 -78 99 -109 26 -11 47 -25 47 -31 0 -5 7 -10 15 -10 9 0 80 -32
160 -71 79 -38 152 -69 162 -67 10 2 25 11 34 20 10 11 20 14 29 8 12 -7 11
-12 -3 -28 -23 -25 -22 -28 14 -41 44 -15 49 -14 49 10 0 15 5 19 18 15 9 -3
31 -8 47 -12 42 -10 60 -24 43 -37 -9 -6 -7 -7 6 -3 12 4 24 0 32 -11 7 -10
14 -13 14 -6 0 7 18 10 54 8 30 -1 60 2 68 6 10 7 10 9 1 9 -7 0 -13 7 -13 16
0 11 6 14 20 9 12 -4 20 -2 20 5 0 6 5 8 10 5 6 -4 19 -1 28 7 15 12 16 11 4
-4 -10 -12 -10 -18 -1 -24 7 -4 18 1 26 11 13 19 68 29 88 17 11 -7 75 -3 88
5 4 3 3 11 -4 19 -6 7 -15 11 -20 8 -5 -3 -9 0 -9 6 0 10 56 11 75 1 6 -3 25
-11 43 -17 25 -9 32 -9 32 1 0 7 -6 15 -12 18 -7 2 -10 7 -7 11 9 9 40 -4 33
-15 -3 -5 4 -9 15 -9 14 0 21 6 21 20 0 18 5 20 54 15 52 -5 53 -5 51 19 -3
20 2 25 28 29 18 2 34 1 35 -4 9 -22 22 -6 16 19 -7 25 -6 26 10 12 16 -13 20
-12 30 1 8 12 17 14 34 8 21 -8 23 -6 17 14 -5 16 -4 18 4 8 8 -12 16 -13 47
-3 20 6 41 9 46 6 4 -3 11 1 14 10 5 13 10 13 47 0 23 -8 52 -12 65 -9 12 3
22 1 22 -5 0 -5 7 -10 16 -10 11 0 15 6 11 20 -4 15 0 20 15 20 10 0 17 -4 14
-9 -11 -17 20 -28 94 -36 61 -5 78 -11 97 -31 19 -21 26 -23 44 -14 11 7 23 9
27 6 3 -3 1 -6 -3 -6 -5 0 0 -7 11 -15 10 -8 34 -15 52 -15 22 0 32 -5 32 -15
0 -9 9 -15 23 -15 24 -1 67 -32 67 -49 0 -6 5 -11 10 -11 6 0 10 8 10 17 0 15
2 14 15 -3 8 -11 15 -14 15 -6 0 6 4 12 9 12 4 0 6 -12 4 -27 -3 -19 -2 -24 4
-15 8 10 15 10 38 -2 16 -8 32 -13 36 -11 4 3 10 -7 14 -22 6 -24 8 -26 16
-10 16 27 36 20 44 -15 5 -23 9 -27 12 -15 2 9 8 17 12 17 14 0 51 -32 46 -40
-8 -13 13 -23 28 -13 20 12 57 15 57 3 0 -5 -7 -10 -15 -10 -8 0 -15 -4 -15
-10 0 -5 7 -10 15 -10 9 0 18 -7 21 -15 4 -10 13 -13 27 -9 16 5 19 3 13 -11
-5 -15 -4 -16 9 -5 13 11 20 9 45 -15 29 -28 30 -28 30 -7 0 27 16 29 30 3 15
-28 13 -37 -12 -49 -13 -6 -17 -11 -9 -11 8 -1 29 10 47 24 18 14 35 25 38 25
13 0 5 -28 -9 -34 -30 -11 -3 -32 58 -45 69 -14 88 -26 80 -46 -3 -8 2 -22 12
-31 15 -15 16 -15 10 8 -7 29 19 46 41 27 18 -15 17 1 -1 25 -11 15 -17 16
-29 7 -11 -9 -14 -6 -18 18 -2 17 -1 28 3 26 12 -8 -3 89 -22 138 -11 26 -19
52 -19 57 0 20 31 9 40 -14 5 -13 14 -27 19 -31 6 -3 11 -24 11 -46 0 -26 9
-53 25 -77 14 -20 25 -44 25 -52 0 -9 7 -25 16 -36 14 -18 15 -16 8 21 -4 22
-8 51 -8 65 -1 14 -5 30 -9 37 -9 15 -5 73 6 80 4 2 4 10 -1 16 -13 16 -32 99
-32 136 0 17 -4 31 -9 31 -11 0 -21 38 -14 56 3 8 12 14 20 14 8 0 11 5 8 10
-3 6 -2 10 3 10 10 0 19 -22 31 -69 8 -32 26 -37 28 -9 2 26 -42 108 -58 108
-6 0 -7 -4 -4 -10 3 -6 -4 -10 -17 -10 -17 0 -20 2 -9 9 12 8 12 12 -2 25 -8
9 -20 16 -26 16 -6 0 -11 6 -11 13 0 7 -13 23 -30 35 -16 13 -30 29 -30 37 0
8 -5 15 -11 15 -5 0 -7 -5 -3 -12 4 -7 3 -8 -4 -4 -6 4 -9 13 -5 21 3 9 -1 15
-10 15 -8 0 -17 6 -20 14 -3 7 -21 16 -40 20 -27 5 -34 10 -30 25 3 13 -5 22
-29 34 -19 9 -43 16 -54 17 -55 1 -96 9 -110 21 -14 11 -18 10 -29 -4 -14 -20
-25 -22 -25 -4 0 6 -13 12 -30 13 -20 1 -30 -4 -30 -13 0 -8 5 -11 10 -8 17
10 32 -5 20 -20 -12 -15 -44 -9 -61 11 -10 12 -14 12 -25 -3 -13 -17 -15 -17
-29 2 -9 11 -13 25 -11 32 3 8 -2 13 -14 13 -12 0 -20 7 -20 16 0 12 -5 14
-17 9 -31 -13 -73 -18 -73 -8 0 18 -52 1 -57 -18 -5 -19 -23 -27 -23 -10 0 6
-12 6 -30 0 -18 -7 -30 -18 -30 -28 0 -27 -11 -32 -34 -16 -23 17 -56 20 -56
5 0 -6 -18 -7 -46 -3 -33 4 -48 2 -54 -7 -5 -7 -19 -14 -32 -16 -12 -1 -26 -3
-30 -3 -4 -1 -16 -11 -27 -23 -18 -19 -21 -19 -27 -4 -3 9 -1 23 6 31 9 10 9
15 1 15 -6 0 -11 -4 -11 -10 0 -5 -9 -10 -19 -10 -11 0 -22 -6 -24 -12 -3 -8
-6 -7 -6 4 -1 20 -41 21 -41 1 0 -7 -3 -13 -7 -13 -14 0 -38 19 -38 30 0 12
-12 11 -43 -3 -15 -7 -26 -7 -30 -1 -13 17 -42 16 -42 -3 0 -15 -2 -16 -10 -3
-9 13 -10 13 -10 0 0 -13 -1 -13 -11 0 -8 11 -12 12 -16 3 -6 -16 -35 -17 -51
-1 -9 9 -12 9 -12 -1 0 -17 -46 -7 -67 14 -18 18 -27 19 -53 3 -17 -11 -23 -9
-43 13 -12 14 -34 29 -49 33 -16 3 -28 11 -28 16 0 6 -11 8 -26 4 -23 -6 -25
-4 -20 14 8 23 -29 71 -37 49 -3 -8 -9 -7 -18 4 -14 17 -73 33 -63 18 8 -13
-36 -32 -49 -21 -7 6 -28 19 -48 30 -33 18 -36 18 -46 3 -9 -14 -12 -12 -18
12 -8 30 -15 33 -33 15 -9 -9 -17 -7 -33 8 -13 10 -19 13 -14 5 6 -11 -7 -13
-75 -9 -55 2 -85 8 -88 16 -5 16 -14 14 -34 -8z"/>
<path d="M3181 16279 c-37 -36 -60 -67 -57 -75 3 -8 2 -14 -3 -14 -4 0 -31
-22 -60 -50 -29 -27 -61 -54 -71 -60 -20 -11 -94 -120 -123 -182 -9 -20 -21
-38 -26 -40 -27 -9 -2 -166 28 -176 30 -10 -4 -192 -36 -192 -8 0 -11 -5 -8
-10 3 -6 -8 -37 -24 -70 -34 -66 -38 -86 -18 -93 8 -3 5 -12 -12 -30 -24 -26
-22 -47 5 -47 23 0 11 -25 -14 -28 -12 -2 -22 -7 -22 -12 0 -5 -3 -15 -6 -24
-9 -25 12 -19 24 7 8 17 11 18 11 5 1 -10 8 -18 17 -18 9 0 12 5 8 12 -4 7 -3
8 5 4 16 -10 4 -26 -20 -26 -15 0 -19 -6 -18 -32 2 -31 2 -31 6 -5 3 21 9 27
26 26 41 -4 89 13 83 28 -4 8 -6 21 -6 29 0 8 -11 19 -25 26 -13 6 -22 15 -19
20 3 4 9 6 14 3 4 -3 10 4 13 15 4 14 10 18 22 14 10 -4 15 -14 12 -25 -5 -20
7 -26 18 -9 3 5 19 7 35 3 23 -4 30 -2 30 10 0 10 -6 14 -15 11 -10 -4 -15 0
-15 11 0 13 6 16 25 11 14 -4 25 -2 25 4 0 17 38 11 50 -7 9 -15 10 -12 5 13
-5 28 -3 33 24 45 16 7 32 23 35 35 5 17 11 21 27 17 19 -5 20 -4 9 16 -10 19
-9 26 6 42 21 23 37 24 58 4 8 -8 17 -15 20 -15 3 0 6 7 6 15 0 8 -5 15 -12
15 -9 0 -9 3 0 12 7 7 12 21 12 31 0 17 2 18 16 6 12 -10 17 -10 23 0 5 7 12
12 17 12 5 0 23 4 39 8 17 5 24 10 16 10 -11 1 -10 5 3 20 11 12 15 27 11 39
-3 12 -1 24 6 28 8 4 9 3 5 -4 -4 -7 -1 -12 6 -12 8 0 27 18 44 40 16 22 34
40 39 40 6 0 19 16 29 35 22 41 64 49 73 15 3 -11 10 -20 15 -20 6 0 8 9 5 20
-3 12 0 20 7 20 6 0 17 9 24 20 6 11 18 17 26 14 8 -3 19 3 26 15 6 13 21 21
35 21 16 0 25 6 25 16 0 11 6 14 22 8 20 -6 21 -5 10 8 -10 12 -10 18 2 27 11
9 22 9 48 -2 30 -13 34 -13 34 3 0 12 -7 15 -23 12 -13 -2 -23 1 -23 7 0 10 6
12 43 15 6 1 18 11 25 24 17 29 -1 66 -28 57 -12 -4 -22 0 -28 11 -5 9 -15 15
-23 12 -7 -2 -22 4 -33 13 -11 10 -56 36 -100 58 -179 86 -234 111 -244 111
-6 0 -19 10 -29 23 -19 24 -108 87 -122 87 -5 0 -36 -27 -70 -61z"/>
<path d="M7159 14685 c-4 -27 5 -52 24 -67 15 -12 17 -18 8 -18 -12 0 -11 -3
1 -17 8 -10 18 -31 22 -48 4 -16 19 -42 34 -57 39 -38 52 -56 52 -70 0 -7 26
-38 58 -69 32 -30 56 -61 54 -67 -2 -7 3 -12 12 -12 9 0 16 -6 16 -12 0 -8 4
-7 10 3 7 12 3 29 -12 60 -12 24 -23 50 -24 58 -2 8 -8 17 -14 21 -6 4 -12 17
-13 28 -1 12 -7 22 -14 22 -12 0 -16 21 -17 71 0 11 -6 15 -18 11 -10 -2 -18
-13 -18 -23 0 -18 -17 -35 -27 -26 -2 3 0 14 5 23 8 14 6 20 -11 29 -12 6 -22
20 -22 30 0 16 -6 19 -29 17 -26 -3 -28 -1 -24 22 4 17 -1 31 -15 43 -10 10
-23 27 -28 38 -4 11 -9 16 -10 10z"/>
<path d="M7145 14430 c-3 -6 -11 -8 -16 -5 -5 4 -9 -5 -9 -18 0 -14 7 -28 16
-31 8 -3 12 -10 9 -16 -3 -5 -1 -10 4 -10 6 0 11 -13 11 -30 0 -22 5 -30 17
-30 13 0 14 -3 5 -12 -7 -7 -12 -21 -12 -33 0 -12 5 -26 12 -33 9 -9 9 -12 0
-12 -7 0 -12 5 -12 10 0 6 -4 10 -10 10 -14 0 -12 -11 5 -34 12 -16 17 -17 30
-6 13 11 14 10 9 -4 -4 -12 0 -16 16 -16 11 0 18 -5 15 -10 -4 -7 -13 -7 -26
0 -13 8 -19 7 -19 -1 0 -6 9 -13 20 -16 23 -6 20 -34 -6 -64 -15 -17 -18 -30
-6 -26 4 1 8 -2 9 -8 1 -5 -5 -9 -13 -7 -8 2 -14 -2 -14 -8 0 -5 11 -10 25
-10 27 0 34 -17 10 -26 -18 -7 -20 -24 -2 -24 18 0 17 -79 -2 -82 -8 -2 -2 -9
15 -18 16 -8 30 -15 32 -16 2 -1 -1 -12 -8 -23 -9 -17 -8 -22 5 -27 19 -8 20
-24 0 -24 -20 0 -19 -36 1 -44 15 -6 15 -8 -2 -27 -14 -16 -16 -24 -7 -38 15
-24 2 -44 -23 -34 -17 6 -18 5 -5 -11 8 -9 20 -15 26 -12 13 4 43 -10 35 -17
-3 -2 -17 -7 -33 -11 -20 -5 -29 -2 -33 9 -4 8 -14 15 -23 15 -10 0 -28 11
-41 25 -13 14 -30 25 -37 25 -8 0 -21 6 -28 13 -47 41 -60 57 -61 75 -2 26 -5
30 -24 35 -11 3 -18 1 -14 -4 3 -5 -2 -9 -10 -9 -9 0 -16 6 -16 14 0 8 -7 16
-15 20 -8 3 -15 15 -15 26 0 12 -4 18 -10 15 -5 -3 -10 -2 -10 4 0 5 -9 12
-19 16 -11 3 -34 19 -53 35 -18 16 -41 30 -50 30 -10 0 -22 9 -28 21 -9 16
-14 18 -26 8 -10 -8 -14 -8 -14 0 0 6 -12 13 -27 17 -30 7 -114 52 -124 66 -3
4 -18 9 -35 10 -16 1 -32 7 -36 13 -5 6 -11 5 -17 -4 -7 -11 -11 -9 -21 9 -9
16 -18 21 -36 17 -13 -2 -24 0 -24 4 0 5 -7 9 -15 9 -8 0 -15 -4 -15 -9 0 -4
-12 -9 -27 -9 -162 -8 -278 -18 -292 -26 -4 -3 -44 -8 -87 -11 -43 -3 -83 -10
-89 -15 -6 -5 -38 -12 -70 -15 -60 -5 -115 -22 -115 -34 0 -4 -8 -7 -19 -8
-10 -1 -30 -13 -45 -28 -14 -14 -31 -23 -36 -20 -6 4 -25 -7 -42 -24 -18 -17
-35 -31 -38 -31 -4 0 -25 -17 -47 -39 -37 -34 -41 -43 -39 -80 2 -42 6 -45 40
-35 13 4 15 8 6 14 -7 5 -1 9 19 12 31 4 43 -6 19 -15 -7 -3 -1 -6 15 -6 41
-1 32 -20 -13 -27 -51 -8 -62 -23 -15 -21 19 1 35 5 35 9 0 4 11 7 24 6 16 -2
22 -7 19 -19 -6 -23 12 -32 38 -18 12 6 19 7 15 1 -3 -6 5 -9 19 -8 14 0 25 7
25 14 0 7 5 10 12 6 6 -4 16 0 22 8 16 22 94 29 81 8 -3 -5 0 -10 7 -10 8 -1
6 -6 -6 -15 -11 -8 -16 -18 -11 -22 4 -5 10 -2 12 5 3 6 14 12 24 12 11 0 18
4 15 9 -3 4 16 11 42 15 30 4 48 2 50 -4 3 -7 11 -5 22 5 14 13 23 14 38 6 16
-8 25 -6 45 9 14 11 32 17 41 14 10 -4 16 -1 16 9 0 12 10 15 44 14 31 -1 50
4 65 17 12 11 34 19 52 18 16 0 32 5 35 12 3 9 27 12 75 12 45 -1 72 3 77 11
5 9 30 12 75 10 37 -1 67 1 67 5 0 4 16 10 35 14 19 3 33 10 30 14 -3 5 -1 11
4 14 5 3 12 -5 15 -18 4 -17 14 -25 36 -28 17 -3 34 0 37 5 3 6 1 7 -5 3 -8
-5 -12 0 -12 13 0 11 4 23 10 26 6 3 7 -1 4 -9 -4 -10 -1 -16 8 -16 7 0 19 -9
26 -21 9 -14 20 -19 33 -16 10 3 17 1 14 -3 -3 -5 3 -11 14 -15 10 -3 21 -15
24 -25 3 -14 14 -20 31 -20 18 0 30 -8 38 -25 6 -13 19 -27 30 -30 10 -4 18
-11 18 -16 0 -5 7 -9 15 -9 14 0 53 -18 65 -30 24 -24 91 -60 101 -54 8 4 9 3
5 -4 -10 -17 25 -61 49 -63 17 -1 17 -2 3 -6 -10 -2 -18 -6 -18 -8 0 -11 66
-75 77 -75 7 0 13 -7 13 -15 0 -9 10 -26 23 -38 12 -12 22 -31 22 -42 0 -11 7
-20 15 -20 20 0 43 -51 44 -100 1 -28 5 -40 16 -40 11 0 14 -10 12 -38 -2 -21
1 -44 8 -52 16 -19 16 -71 0 -90 -12 -14 -11 -18 1 -26 12 -8 12 -10 -1 -18
-12 -8 -11 -13 5 -31 20 -22 24 -91 7 -113 -12 -17 -9 -62 4 -60 7 1 10 -6 7
-17 -3 -12 -14 -20 -27 -21 -11 0 -16 -3 -9 -5 18 -8 4 -34 -17 -34 -11 0 -21
-4 -24 -9 -4 -5 2 -7 13 -4 10 3 22 0 25 -6 5 -7 -7 -11 -34 -11 -25 0 -39 4
-35 10 3 6 -4 10 -18 10 -13 0 -32 9 -42 20 -16 18 -16 20 -2 20 10 0 17 -4
17 -10 0 -5 16 -10 37 -10 20 0 33 3 30 7 -4 3 -2 12 5 20 6 7 8 16 4 20 -3 3
-6 1 -6 -5 0 -16 -53 -15 -68 0 -19 19 -14 31 9 25 22 -6 59 11 59 26 0 5 -9
6 -19 2 -11 -3 -22 -1 -26 5 -3 5 -15 10 -26 10 -11 0 -17 5 -14 10 3 6 1 10
-4 10 -6 0 -11 7 -11 15 0 25 -17 17 -23 -11 -3 -18 -1 -24 9 -20 8 3 14 1 14
-4 0 -6 7 -10 16 -10 9 0 14 -6 11 -12 -2 -7 -15 -12 -28 -11 -70 5 -107 5
-137 -1 -26 -4 -30 -3 -20 8 7 7 22 17 33 24 17 10 17 11 3 12 -9 0 -21 8 -27
18 -9 15 -10 16 -16 1 -5 -14 -11 -15 -36 -6 -27 11 -41 37 -19 37 6 0 10 7
10 15 0 8 7 15 15 15 8 0 15 5 15 11 0 7 -9 9 -22 5 -13 -3 -31 -6 -42 -6 -15
0 -17 -5 -12 -35 5 -23 3 -35 -4 -35 -7 0 -9 -10 -5 -28 7 -35 -20 -66 -36
-41 -12 20 -11 29 4 29 7 0 8 3 2 8 -14 10 -18 42 -5 42 6 0 9 15 8 32 -3 33
-40 77 -65 78 -19 0 -16 -10 11 -31 13 -10 26 -28 29 -40 5 -18 2 -20 -20 -14
-19 4 -24 3 -20 -7 3 -7 8 -21 12 -30 5 -13 2 -18 -10 -18 -9 0 -19 9 -22 20
-4 16 -8 18 -19 9 -11 -9 -18 -8 -29 1 -13 10 -15 9 -15 -9 0 -12 -4 -20 -9
-17 -4 3 -6 17 -4 30 7 36 -16 84 -38 79 -21 -6 -30 -34 -17 -58 7 -11 6 -21
-1 -28 -7 -7 -12 -5 -17 7 -5 13 -9 14 -20 5 -11 -9 -19 -8 -36 7 -16 14 -22
16 -25 6 -4 -10 -8 -10 -17 2 -7 11 -37 17 -96 21 -47 3 -132 14 -190 24 -58
10 -109 15 -115 11 -5 -4 -35 -7 -65 -5 -30 1 -59 -1 -65 -4 -16 -8 -49 -9
-60 -1 -12 10 -61 6 -95 -8 -23 -9 -25 -7 -28 19 -4 31 -22 41 -22 11 0 -9 -9
-23 -20 -30 -19 -11 -20 -10 -20 24 0 30 2 35 14 25 12 -10 17 -8 26 9 16 29
-10 59 -45 53 -13 -3 -33 2 -45 10 -21 14 -21 16 -3 25 27 15 7 28 -21 13 -19
-11 -27 -10 -45 0 -27 18 -27 23 4 39 29 16 33 30 7 30 -12 0 -23 13 -32 35
-16 41 -46 59 -36 21 3 -13 3 -31 0 -39 -5 -13 -8 -13 -23 2 -24 24 -33 51
-18 52 7 1 1 5 -13 9 -36 11 -52 11 -45 0 3 -5 -1 -10 -10 -10 -9 0 -14 -4
-10 -9 10 -17 -27 -30 -53 -18 -19 9 -23 16 -18 39 3 15 1 30 -4 33 -6 3 -10
1 -10 -4 0 -15 -27 -14 -32 0 -3 8 -15 9 -36 4 -18 -3 -29 -11 -26 -16 3 -6
12 -8 20 -5 8 3 26 -7 40 -21 16 -16 22 -29 16 -31 -7 -2 -12 -11 -12 -19 0
-13 -2 -13 -17 -2 -9 8 -18 13 -20 12 -9 -7 -23 -2 -18 7 3 6 18 10 33 10 45
0 10 20 -46 27 -36 4 -52 2 -52 -6 0 -6 7 -11 15 -11 8 0 15 -5 15 -10 0 -6
-8 -10 -17 -8 -10 2 -17 -2 -16 -8 1 -6 -15 -20 -37 -30 -23 -11 -41 -28 -45
-42 -3 -14 -22 -30 -50 -43 -25 -12 -45 -27 -45 -35 0 -8 -6 -14 -14 -14 -14
0 -40 -55 -37 -77 1 -7 -2 -13 -7 -13 -5 0 -21 -12 -36 -26 -19 -20 -23 -30
-15 -40 7 -9 6 -21 -5 -43 -17 -31 -12 -61 8 -61 7 0 23 -11 36 -25 13 -14 28
-25 32 -25 5 0 2 7 -6 16 -9 8 -14 20 -10 25 9 14 44 -9 44 -30 0 -20 -22 -44
-36 -39 -5 2 -9 1 -10 -2 0 -3 -6 -15 -13 -27 -10 -19 -9 -23 3 -23 8 0 16 -6
19 -12 4 -10 7 -10 18 0 19 17 29 15 29 -7 0 -11 7 -27 16 -36 9 -9 14 -19 10
-22 -7 -7 12 -33 25 -33 5 0 6 7 2 16 -5 14 -3 15 14 5 25 -13 36 -38 20 -45
-7 -2 -4 -5 5 -5 12 -1 15 -6 11 -17 -5 -14 -1 -16 20 -12 16 3 28 0 31 -8 3
-8 1 -14 -4 -14 -6 0 -10 -4 -10 -10 0 -5 7 -10 15 -10 9 0 12 -6 9 -15 -7
-18 0 -19 26 -2 17 10 22 9 29 -2 11 -17 3 -43 -10 -35 -5 3 -14 2 -20 -1 -6
-4 0 -13 16 -21 20 -10 30 -11 45 -2 13 8 27 9 51 1 27 -9 29 -11 12 -12 -13
-1 -23 -5 -23 -11 0 -5 6 -7 13 -4 7 2 30 -2 50 -11 31 -13 37 -13 37 -1 0 11
5 12 25 3 14 -7 25 -15 25 -19 0 -5 9 -8 19 -8 11 0 22 -6 24 -12 4 -8 6 -7 6
3 1 20 33 48 38 34 1 -5 30 -9 62 -8 44 1 61 -3 65 -13 4 -12 9 -11 26 6 11
11 20 25 20 30 0 13 13 13 25 1 6 -5 41 -12 80 -15 38 -3 71 -10 73 -16 2 -5
18 -9 35 -9 18 1 24 3 15 6 -22 6 -24 23 -2 23 8 0 13 4 10 9 -4 5 8 13 26 16
18 4 39 12 47 19 8 6 17 10 20 9 3 -2 6 3 6 10 0 8 11 11 30 8 67 -8 91 -7
140 4 28 7 61 18 73 24 23 12 46 6 37 -10 -4 -5 3 -9 15 -9 13 0 18 4 15 11
-5 7 15 10 61 9 38 -2 81 0 97 4 71 16 79 17 72 6 -9 -15 1 -12 19 6 14 14 18
14 31 0 8 -8 15 -17 15 -20 0 -9 34 -46 42 -46 5 0 8 14 8 30 0 17 -5 30 -11
30 -8 0 -7 5 1 15 8 9 20 13 29 9 28 -11 46 -11 52 -1 4 5 10 -4 14 -22 6 -30
18 -40 29 -22 3 4 26 4 52 -2 36 -9 47 -8 54 3 4 7 15 10 25 7 9 -4 14 -3 10
3 -3 6 5 10 19 10 14 0 26 5 26 12 0 9 3 9 12 0 14 -14 78 -16 78 -3 0 5 19 7
43 5 l42 -3 -24 20 -24 20 32 -3 c26 -2 31 -6 27 -22 -3 -13 -2 -16 6 -8 6 6
8 22 4 38 -5 20 -10 24 -15 15 -6 -10 -10 -10 -16 -2 -4 7 -2 18 5 26 7 8 7
15 1 19 -5 4 -9 16 -8 27 1 16 6 19 24 14 18 -4 26 0 33 17 5 13 9 19 9 14 1
-11 51 45 51 57 0 4 5 7 10 7 17 0 12 -77 -6 -84 -9 -3 -20 -4 -25 0 -5 3 -9
0 -9 -5 0 -6 -7 -11 -16 -11 -18 0 -49 -28 -40 -37 3 -3 13 0 22 8 15 12 16
11 10 -9 -10 -29 16 -20 39 14 9 14 27 30 41 36 15 7 27 23 31 40 3 15 12 28
19 28 8 0 14 5 14 11 0 5 -4 7 -10 4 -15 -9 -11 27 5 49 17 23 20 52 5 61 -6
3 -14 -4 -18 -16 -7 -19 -10 -20 -15 -6 -3 9 2 32 12 49 24 42 35 106 22 122
-11 14 -1 140 13 153 4 5 13 0 20 -10 18 -24 50 -24 37 1 -6 11 -6 24 0 34 9
17 16 65 23 168 2 30 8 72 14 93 5 20 7 39 2 42 -4 2 -4 28 1 57 15 103 18
222 7 235 -8 10 -8 20 2 38 7 13 10 31 7 39 -3 8 -2 18 3 21 14 9 12 25 -3 25
-18 0 -40 76 -27 99 7 14 6 22 -5 31 -9 8 -13 21 -9 35 8 30 -11 40 -40 21
-24 -15 -24 -15 -30 27 -3 23 -7 48 -8 54 -1 7 -9 15 -19 18 -10 3 -21 15 -24
26 -4 10 -11 19 -16 19 -5 0 -9 6 -9 13 0 8 -7 28 -16 45 -8 18 -13 36 -9 41
7 13 -48 9 -58 -4 -5 -6 -7 -3 -3 8 7 21 -13 67 -28 67 -6 0 -16 10 -21 23 -6
12 -18 21 -28 21 -9 -1 -17 2 -17 7 0 16 -49 61 -59 54 -6 -3 -8 0 -5 8 7 18
-41 72 -51 57z"/>
<path d="M2640 13788 c0 -5 -9 -8 -19 -8 -11 0 -22 -9 -26 -19 -3 -10 -16 -22
-28 -25 -12 -3 -38 -19 -57 -35 -32 -28 -33 -30 -12 -31 21 0 33 -20 11 -20
-5 0 -8 -4 -5 -9 3 -4 -6 -6 -19 -3 -21 4 -25 0 -25 -19 0 -12 -7 -31 -17 -41
-15 -17 -15 -18 11 -18 17 0 25 -4 20 -11 -3 -6 -15 -8 -26 -6 -14 4 -18 1
-16 -11 2 -9 8 -17 13 -18 42 -3 85 -18 85 -30 0 -9 12 -14 34 -14 22 0 36 -6
40 -17 5 -11 10 -13 17 -6 15 15 139 -19 139 -38 0 -18 29 -8 35 12 5 16 10
18 18 10 9 -9 8 -14 -3 -21 -12 -8 -11 -10 7 -10 12 0 25 -5 28 -11 4 -6 13
-8 21 -5 7 3 19 -1 26 -8 18 -18 67 -26 95 -15 16 6 27 4 37 -6 8 -8 21 -15
28 -15 24 0 37 -22 31 -50 -3 -15 0 -30 5 -34 6 -4 8 2 5 14 -4 14 3 29 21 45
25 24 64 35 52 16 -6 -9 35 -24 43 -16 2 3 -1 5 -8 5 -7 0 -10 4 -7 9 3 5 -1
14 -9 21 -7 6 -11 18 -8 26 6 17 33 19 33 2 0 -8 7 -5 15 6 14 19 15 19 15 -6
0 -17 7 -27 20 -31 13 -3 18 -11 14 -20 -3 -8 0 -18 7 -23 7 -4 15 -2 17 5 3
9 7 9 18 0 19 -16 18 0 -3 23 -9 11 -11 18 -5 18 7 0 12 -4 12 -9 0 -5 9 -13
21 -16 13 -4 18 -12 15 -22 -4 -9 1 -21 11 -29 14 -10 15 -15 6 -25 -10 -9
-15 -10 -27 0 -10 8 -16 9 -21 1 -3 -5 0 -10 7 -10 10 0 10 -2 -1 -9 -11 -7
-10 -11 5 -20 14 -9 15 -14 6 -18 -10 -4 -10 -8 -1 -20 10 -12 10 -19 0 -35
-16 -26 -3 -39 15 -14 15 21 19 56 7 56 -5 0 -9 12 -9 26 -1 14 0 23 3 20 9
-9 31 20 35 45 3 22 7 24 48 20 25 -1 47 -7 48 -12 7 -18 20 2 15 22 -4 15
-11 19 -26 15 -28 -7 -47 11 -47 43 0 14 4 21 8 15 12 -19 62 -23 71 -6 7 12
12 12 35 -3 14 -10 26 -21 26 -26 0 -12 -23 -12 -35 0 -6 5 -19 5 -30 1 -11
-5 -14 -9 -7 -9 8 -1 29 -17 46 -38 20 -22 36 -32 40 -25 3 6 2 13 -4 17 -23
14 -10 35 23 35 32 0 57 15 57 34 0 5 -9 1 -21 -10 -16 -14 -24 -16 -37 -7 -9
6 -16 19 -14 29 13 89 14 92 33 87 11 -3 19 0 19 6 0 6 -10 13 -23 16 -24 7
-57 52 -57 79 0 9 -8 16 -18 16 -12 0 -23 13 -32 35 -8 19 -17 35 -22 35 -4 0
-23 14 -40 31 -23 22 -40 29 -60 27 -16 -2 -32 2 -36 7 -4 6 -31 19 -60 29
-61 21 -327 32 -349 14 -8 -6 -18 -7 -25 -2 -16 11 -162 11 -205 0 -40 -9 -46
10 -8 24 38 15 30 26 -20 25 -25 0 -45 -3 -45 -7z"/>
<path d="M3476 13251 c-4 -6 -2 -11 3 -11 6 0 11 -4 11 -10 0 -5 -5 -10 -11
-10 -6 0 -22 -9 -37 -20 -17 -14 -29 -17 -36 -10 -5 5 -17 10 -25 10 -12 0
-11 -3 2 -18 10 -10 15 -21 11 -24 -3 -3 -7 -23 -10 -44 -4 -36 -3 -37 9 -19
8 11 17 32 21 47 3 15 15 30 26 33 11 3 20 11 20 16 0 6 12 8 29 4 23 -5 30
-2 34 12 4 17 4 17 12 -1 6 -13 4 -21 -3 -24 -21 -7 -13 -20 18 -31 37 -12 41
-41 6 -41 -32 0 -42 -17 -16 -25 26 -8 26 -35 0 -35 -11 0 -20 7 -20 15 0 8
-4 15 -10 15 -21 0 -9 30 15 36 34 8 32 21 -5 29 -16 4 -32 11 -35 16 -4 5
-13 9 -21 9 -8 0 -12 -5 -9 -11 4 -6 -1 -17 -11 -25 -17 -14 -16 -14 16 -8 31
6 33 5 21 -10 -7 -9 -22 -16 -32 -16 -27 0 -24 -14 11 -52 20 -21 26 -34 18
-36 -42 -11 -44 -13 -25 -27 15 -10 17 -21 12 -44 -7 -33 -25 -52 -25 -27 0 8
-6 16 -12 19 -10 3 -10 7 -1 19 7 8 10 18 6 22 -11 10 -12 36 -2 36 5 0 9 9 9
20 0 11 -5 20 -11 20 -5 0 -7 -5 -4 -10 3 -6 -1 -13 -10 -16 -9 -4 -14 -13
-11 -20 3 -8 3 -28 -1 -45 -4 -24 -10 -29 -24 -26 -12 3 -19 0 -19 -9 0 -8 9
-14 20 -14 11 0 20 -4 20 -10 0 -5 -9 -10 -20 -10 -13 0 -18 -5 -14 -15 4 -11
2 -13 -9 -9 -8 3 -18 1 -21 -4 -3 -6 6 -13 20 -16 l26 -7 -36 -24 c-31 -21
-42 -23 -81 -16 -34 6 -45 5 -45 -4 0 -7 8 -12 17 -11 12 0 19 -7 21 -21 5
-32 -6 -29 -51 13 -13 12 -50 1 -74 -23 -18 -16 -16 -26 2 -19 9 3 15 0 15 -8
0 -8 -6 -16 -14 -19 -15 -6 -31 36 -21 53 4 6 0 10 -8 10 -8 0 -18 -7 -21 -16
-6 -15 -8 -15 -27 2 -17 15 -22 16 -29 4 -5 -8 -18 -15 -29 -15 -12 0 -21 -3
-21 -7 0 -5 3 -8 6 -7 3 0 12 -8 19 -18 13 -17 14 -16 25 12 10 25 13 27 21
13 5 -10 17 -14 29 -11 23 6 27 -12 5 -21 -8 -3 -15 -15 -15 -26 0 -19 -4 -21
-29 -15 -16 3 -38 2 -48 -3 -44 -22 -112 -38 -126 -30 -9 5 -18 4 -21 -1 -4
-5 -27 -9 -52 -9 -25 0 -51 -6 -59 -12 -8 -6 -19 -9 -26 -5 -6 4 -24 -2 -40
-14 -15 -11 -31 -21 -35 -21 -31 0 -147 -79 -201 -136 -18 -19 -46 -37 -62
-40 -35 -7 -38 -17 -36 -117 2 -87 15 -106 71 -107 17 0 33 -3 37 -6 3 -3 46
-7 96 -9 49 -2 94 -6 100 -9 5 -4 12 -2 16 4 8 13 65 13 65 0 0 -5 11 -10 24
-10 14 0 28 -4 31 -10 3 -5 24 -10 45 -10 21 0 42 -5 45 -10 4 -6 11 -8 16 -4
5 3 16 1 24 -6 8 -6 24 -10 36 -8 20 3 26 -3 49 -52 9 -19 69 -20 92 -1 16 12
19 10 32 -19 8 -20 16 -28 20 -21 4 7 2 18 -4 26 -9 11 -9 15 -1 15 6 0 11 -4
11 -10 0 -15 46 -23 68 -11 10 5 47 15 82 20 35 6 66 14 69 18 3 5 24 9 45 11
22 2 45 10 51 18 7 10 31 16 68 17 32 1 56 6 54 12 -5 15 43 35 69 29 15 -4
24 -2 24 5 0 6 7 11 16 11 13 0 14 3 5 14 -10 12 -7 15 16 18 15 2 28 8 28 13
0 10 24 42 63 83 18 19 20 27 11 38 -6 8 -8 15 -3 16 5 0 14 2 19 3 34 5 54
19 65 45 7 17 16 30 21 30 5 0 9 9 9 20 0 11 5 20 10 20 6 0 10 7 10 15 0 9 7
18 15 21 11 5 13 10 5 19 -6 7 -11 50 -12 95 -2 75 -4 83 -25 93 -27 12 -29
22 -7 31 10 4 13 13 9 26 -4 12 -2 20 5 20 6 0 8 10 4 28 -8 33 -20 47 -28 34
-3 -6 -2 -13 4 -17 5 -3 10 -13 10 -22 0 -14 -3 -14 -20 2 -11 10 -20 25 -20
33 0 9 -7 13 -20 9 -12 -3 -20 0 -20 7 0 7 -15 20 -32 29 -32 15 -32 16 -10
23 27 8 29 24 2 24 -11 0 -20 5 -20 11 0 6 -7 8 -16 5 -10 -4 -14 -1 -11 6 2
7 14 12 25 10 12 -2 22 2 22 7 0 6 -6 11 -14 11 -8 0 -30 15 -49 33 -35 33
-54 67 -37 67 6 0 10 5 10 10 0 6 -7 10 -15 10 -8 0 -15 -3 -15 -7 0 -15 -53
-34 -64 -23 -7 7 -5 10 5 11 9 0 6 4 -6 9 -17 7 -18 9 -2 9 13 1 16 7 13 27
-4 20 0 27 14 31 11 3 20 9 20 14 0 12 -17 11 -25 -1 -12 -19 -22 -10 -18 14
6 32 -36 60 -86 59 -20 -1 -39 3 -42 9 -4 7 -9 6 -13 -1z"/>
<path d="M8014 13105 c3 -9 -1 -18 -10 -22 -10 -4 -12 -8 -5 -13 16 -9 -6
-107 -25 -114 -8 -3 -14 -11 -12 -18 2 -7 -2 -13 -7 -13 -15 0 -13 66 3 98 7
16 12 31 9 33 -8 8 -28 -24 -33 -53 -3 -15 -12 -39 -22 -53 -17 -25 -18 -80
-1 -80 5 0 9 5 9 12 0 19 14 -1 15 -22 1 -11 -4 -20 -12 -20 -8 0 -13 -14 -14
-40 -1 -22 -2 -43 -4 -47 -1 -5 -5 -21 -9 -38 -4 -16 -10 -37 -13 -45 -3 -8
-7 -42 -9 -75 -3 -33 -10 -76 -16 -95 -7 -21 -12 -115 -12 -230 -1 -107 -5
-201 -10 -209 -6 -9 -4 -18 7 -26 10 -7 17 -16 17 -20 0 -4 -7 -2 -15 5 -8 7
-15 11 -16 9 -1 -2 -3 -26 -5 -52 -2 -27 -8 -57 -13 -66 -6 -9 -6 -23 -2 -30
9 -14 2 -61 -8 -61 -4 0 -8 8 -9 18 -4 42 -2 186 2 190 3 2 -2 11 -10 19 -8 9
-17 14 -18 12 -2 -2 -6 -35 -9 -74 -3 -38 -8 -78 -12 -87 -4 -11 -3 -18 5 -18
8 0 10 -10 5 -32 -5 -25 -4 -29 4 -18 9 12 11 10 11 -10 1 -14 7 -42 14 -62
12 -32 11 -38 0 -38 -7 0 -17 12 -20 26 -6 21 -8 24 -15 11 -5 -9 -5 -26 1
-41 6 -17 6 -27 -1 -32 -6 -3 -4 -11 7 -18 14 -11 14 -14 2 -18 -19 -8 -19
-155 1 -167 8 -5 11 -17 7 -29 -4 -13 0 -31 10 -47 9 -14 14 -26 10 -26 -3 -1
-10 -2 -15 -3 -18 -2 -33 -23 -23 -30 6 -3 13 -2 17 4 10 17 25 11 25 -10 0
-11 4 -20 10 -20 12 0 -10 -52 -27 -63 -18 -11 -17 -61 1 -54 32 13 23 -66
-11 -86 -16 -10 -17 -34 -2 -39 21 -7 17 -102 -5 -99 -17 2 -20 0 -9 -7 15
-10 2 -121 -17 -132 -7 -5 -8 -10 -2 -14 11 -6 2 -58 -18 -106 -10 -25 -9 -32
4 -45 12 -12 13 -21 6 -35 -14 -26 -12 -40 5 -40 17 0 20 -16 5 -25 -6 -4 -8
-11 -4 -16 3 -5 7 -21 10 -34 4 -20 0 -25 -16 -25 -17 0 -20 4 -15 22 6 16 4
20 -8 15 -14 -5 -16 2 -13 49 3 51 -5 67 -20 43 -3 -6 -6 -37 -6 -68 0 -31 -5
-59 -12 -63 -7 -5 -5 -8 7 -8 19 0 23 -25 5 -36 -8 -5 -6 -11 6 -20 22 -16 4
-28 -30 -20 -21 6 -24 3 -24 -24 0 -34 -7 -38 -25 -13 -11 15 -13 15 -24 -5
-10 -20 -9 -22 10 -19 12 1 24 -4 26 -10 3 -7 -2 -13 -10 -13 -9 0 -17 -6 -20
-12 -3 -10 -7 -10 -17 -1 -7 6 -19 9 -26 6 -9 -3 -14 2 -14 16 0 12 -3 21 -6
21 -14 0 -44 -44 -44 -63 0 -21 0 -21 -15 -1 -14 19 -14 18 -15 -3 0 -14 6
-23 15 -23 8 0 15 -4 15 -10 0 -5 -4 -10 -10 -10 -5 0 -10 -7 -10 -17 0 -9 -3
-13 -7 -9 -5 4 -8 12 -8 17 0 5 -3 9 -7 9 -5 0 -10 0 -13 0 -2 0 0 -12 5 -26
10 -26 10 -26 -34 -23 -33 3 -42 1 -35 -8 7 -7 6 -13 0 -18 -6 -3 -16 -15 -21
-26 -9 -16 -7 -19 9 -19 14 0 19 5 15 15 -4 8 -1 15 5 15 17 0 13 -30 -5 -37
-9 -3 -24 -2 -33 4 -9 6 -31 14 -49 18 -26 5 -31 4 -26 -9 3 -8 13 -17 22 -19
12 -3 10 -5 -5 -6 -13 -1 -23 -7 -23 -16 0 -17 16 -20 25 -5 8 12 32 2 39 -17
3 -8 3 -25 0 -38 -4 -17 -11 -21 -27 -17 -12 3 -25 9 -28 14 -6 9 -59 -13 -59
-24 0 -5 -7 -8 -16 -8 -13 0 -15 7 -11 35 3 19 2 35 -2 35 -21 0 -35 -37 -37
-93 -1 -45 -5 -62 -15 -62 -10 0 -13 12 -11 43 2 24 -1 42 -7 42 -6 0 -11 -9
-11 -20 0 -23 -10 -26 -28 -8 -9 9 -12 9 -12 0 0 -7 8 -16 18 -20 22 -9 27
-32 7 -32 -26 0 -16 -19 13 -23 l27 -4 -27 -2 c-18 0 -28 -7 -28 -16 0 -11
-11 -15 -40 -15 -28 0 -40 -4 -40 -14 0 -9 7 -12 20 -9 24 6 26 -9 4 -31 -13
-14 -14 -16 0 -16 8 0 18 5 21 10 3 6 12 10 18 10 8 0 8 -3 -1 -9 -8 -4 -12
-12 -10 -17 1 -5 -7 -10 -19 -12 -15 -2 -23 -10 -23 -23 0 -10 -6 -19 -14 -19
-8 0 -22 -7 -31 -17 -16 -15 -16 -17 0 -26 9 -5 24 -10 33 -11 31 -5 18 -28
-16 -31 -31 -3 -59 -15 -34 -15 7 0 12 -7 12 -15 0 -8 7 -15 15 -15 9 0 12 6
9 15 -8 21 2 19 27 -6 17 -17 19 -23 8 -30 -8 -4 -16 -4 -20 2 -4 7 -8 5 -12
-4 -3 -9 -14 -14 -24 -11 -10 2 -25 0 -33 -6 -13 -9 -13 -11 0 -19 8 -5 17 -8
21 -5 9 5 42 -46 35 -53 -3 -3 -12 -1 -20 6 -11 9 -13 7 -13 -14 0 -26 12 -39
34 -40 7 0 13 -3 13 -7 0 -5 0 -12 0 -18 0 -5 -6 -10 -14 -10 -7 0 -16 -10
-19 -21 -4 -16 -11 -20 -27 -16 -15 4 -24 0 -30 -16 -5 -12 -9 -17 -9 -12 -1
9 -31 -41 -31 -51 0 -2 6 -4 13 -4 7 0 17 -13 23 -28 9 -24 8 -31 -7 -40 -15
-9 -26 -7 -54 9 -20 12 -35 16 -35 10 0 -7 8 -15 18 -18 38 -15 59 -56 23 -46
-18 4 -61 -30 -61 -49 0 -13 18 -9 22 4 4 10 8 9 20 -2 17 -18 13 -40 -8 -40
-8 0 -14 -4 -14 -10 0 -5 7 -10 16 -10 11 0 14 -5 10 -16 -3 -9 -6 -18 -6 -20
0 -2 -4 -4 -10 -4 -5 0 -10 7 -10 15 0 17 -18 19 -40 5 -10 -6 -11 -10 -2 -10
7 0 12 -13 12 -30 0 -20 -5 -30 -15 -30 -9 0 -15 -9 -15 -21 0 -12 -8 -23 -18
-26 -13 -3 -18 -11 -15 -27 3 -13 -3 -29 -16 -40 -12 -11 -21 -25 -21 -32 0
-7 -13 -21 -30 -31 -29 -17 -39 -33 -21 -33 5 0 11 5 13 12 2 6 10 8 17 4 9
-6 9 -11 0 -22 -6 -8 -9 -18 -5 -22 4 -4 13 1 20 11 16 21 36 22 36 1 0 -10
-6 -14 -14 -11 -13 5 -32 -34 -28 -56 1 -4 -5 -10 -13 -13 -8 -4 -15 -12 -15
-20 0 -7 -10 -20 -22 -28 -20 -14 -20 -16 -4 -16 15 0 17 -5 12 -31 -3 -17 -6
-35 -6 -40 0 -5 -5 -9 -11 -9 -14 0 -39 -25 -39 -39 0 -14 13 -14 28 1 6 6 15
8 19 4 4 -4 0 -12 -10 -17 -21 -12 -23 -41 -2 -33 10 4 15 0 15 -10 0 -10 -11
-19 -30 -22 -16 -4 -30 -13 -30 -20 0 -8 -7 -14 -15 -14 -8 0 -15 -4 -15 -10
0 -5 8 -10 19 -10 14 0 17 -6 13 -25 -5 -31 -18 -40 -54 -37 -32 3 -47 -16
-26 -32 17 -13 30 -56 17 -56 -5 0 -9 5 -9 11 0 5 -4 7 -10 4 -17 -10 -11 -32
10 -38 11 -3 20 -11 20 -17 0 -8 -8 -10 -21 -7 -17 5 -20 2 -16 -14 3 -10 1
-19 -4 -19 -5 0 -9 -6 -9 -14 0 -14 -30 -28 -65 -30 -21 -1 -23 -14 -11 -53 5
-14 3 -23 -3 -23 -6 0 -11 5 -11 12 0 6 -3 9 -6 6 -3 -4 2 -18 11 -31 16 -24
15 -26 -5 -37 -12 -6 -25 -8 -28 -4 -4 4 -1 9 6 11 22 8 13 28 -14 29 -18 2
-24 -2 -22 -15 2 -9 -3 -22 -12 -28 -13 -11 -12 -13 8 -19 13 -4 22 -14 22
-25 0 -11 5 -19 10 -19 6 0 10 -11 10 -25 0 -16 -6 -25 -15 -25 -8 0 -15 9
-15 19 0 11 -4 23 -10 26 -10 6 -14 -7 -11 -33 1 -8 -6 -20 -16 -27 -10 -7
-14 -17 -10 -21 4 -5 12 -2 17 6 12 20 20 9 13 -18 -4 -17 -11 -21 -24 -17
-12 4 -21 1 -25 -10 -9 -21 5 -33 16 -15 8 12 10 11 11 -5 2 -23 -1 -48 -6
-53 -9 -9 -42 33 -37 47 5 14 3 13 -15 -1 -11 -10 -27 -18 -36 -18 -9 0 -18
-4 -22 -9 -9 -16 12 -22 41 -11 32 12 42 6 24 -15 -10 -12 -10 -18 0 -30 9
-10 9 -15 1 -15 -6 0 -11 -7 -11 -16 0 -12 -7 -14 -29 -9 -25 5 -31 2 -43 -22
-9 -19 -21 -28 -38 -28 -22 0 -25 -4 -25 -38 0 -20 -4 -37 -10 -37 -5 0 1 -9
14 -19 17 -13 20 -20 12 -26 -7 -4 -17 0 -24 9 -7 9 -26 18 -44 20 -18 3 -37
7 -43 11 -15 9 -12 -2 7 -25 10 -11 27 -21 38 -21 17 -1 17 -2 2 -6 -9 -2 -15
-9 -12 -14 4 -5 -1 -9 -9 -9 -9 0 -16 5 -16 10 0 6 -8 10 -17 9 -15 0 -14 -3
5 -16 25 -18 29 -41 7 -49 -17 -7 -21 -34 -5 -34 6 0 10 -7 10 -15 0 -20 -44
-36 -81 -30 -16 3 -29 1 -29 -5 0 -5 8 -11 18 -12 9 0 22 -2 29 -2 6 -1 15 -5
20 -9 11 -12 -19 -28 -40 -21 -12 4 -20 -2 -26 -18 l-10 -23 -2 25 c-1 21 -2
22 -6 5 -3 -11 -12 -29 -19 -40 -8 -11 -14 -28 -14 -38 0 -10 -9 -21 -20 -24
-25 -7 -26 -23 -2 -24 13 0 12 -2 -5 -9 -13 -5 -23 -13 -23 -18 0 -5 -15 -25
-33 -46 l-33 -37 -24 21 c-20 17 -22 23 -10 30 8 5 12 11 10 14 -3 2 -14 -3
-25 -11 -14 -11 -16 -17 -7 -20 19 -7 14 -31 -8 -38 -11 -3 -20 -10 -20 -15 0
-5 7 -7 15 -4 8 4 22 0 31 -7 14 -11 13 -14 -8 -25 -13 -7 -21 -16 -18 -21 3
-4 -5 -9 -17 -11 -16 -2 -23 2 -23 12 0 9 -4 16 -10 16 -5 0 -10 -8 -10 -18 0
-10 -8 -25 -18 -33 -15 -13 -20 -13 -30 -2 -7 7 -19 13 -27 13 -21 0 -19 -27
3 -39 13 -8 14 -11 2 -11 -8 0 -24 -7 -34 -15 -16 -12 -17 -17 -6 -30 10 -12
9 -16 -4 -21 -9 -3 -22 -1 -29 5 -8 6 -17 7 -23 1 -6 -6 -15 -6 -24 0 -13 9
-13 11 0 21 11 8 6 9 -20 4 -19 -4 -39 -11 -44 -16 -15 -14 -26 -11 -26 7 0
12 -6 11 -29 -8 -17 -13 -30 -29 -30 -35 -1 -7 -10 -13 -21 -13 -10 0 -23 -8
-29 -17 -8 -15 -13 -16 -30 -5 -23 13 -28 3 -8 -17 10 -11 8 -12 -11 -6 -16 5
-30 1 -43 -11 -17 -16 -19 -16 -19 -1 0 12 -8 17 -27 17 l-28 -1 29 -25 c15
-14 25 -28 22 -32 -4 -3 -11 0 -15 7 -6 9 -11 10 -15 2 -8 -13 -46 -15 -46 -2
0 5 -6 11 -13 14 -10 4 -13 -2 -9 -19 3 -19 0 -24 -16 -24 -13 0 -23 9 -28 22
l-7 23 -8 -23 c-5 -13 -14 -20 -19 -17 -7 4 -9 -2 -4 -19 7 -30 -2 -33 -33
-11 -18 12 -23 13 -32 1 -7 -8 -21 -12 -31 -9 -11 3 -20 0 -20 -6 0 -6 5 -11
10 -11 6 0 10 -4 10 -10 0 -5 -13 -10 -30 -10 -26 0 -30 -4 -30 -26 0 -14 -4
-23 -10 -19 -6 3 -7 17 -4 31 6 24 -10 35 -19 12 -3 -9 -13 -5 -31 11 -14 14
-26 20 -26 14 0 -6 7 -13 15 -17 8 -3 15 -14 15 -25 0 -11 6 -22 13 -25 9 -5
9 -7 0 -12 -7 -3 -13 -12 -13 -19 0 -7 -6 -15 -13 -18 -18 -7 -45 15 -39 33 4
12 2 13 -9 3 -7 -7 -21 -13 -31 -13 -15 0 -18 -8 -18 -47 0 -29 -4 -43 -9 -35
-4 7 -14 12 -22 10 -8 -2 -15 7 -17 20 -6 38 -27 25 -29 -18 -1 -28 3 -40 13
-40 23 0 16 -16 -13 -30 -23 -11 -25 -14 -10 -17 19 -5 22 -24 6 -40 -8 -8 -8
-13 0 -17 13 -8 15 -46 2 -46 -4 0 -6 -11 -4 -24 3 -14 -2 -35 -11 -48 -17
-24 -22 -68 -8 -68 12 0 32 46 32 73 0 21 1 21 18 3 11 -12 13 -20 6 -23 -6
-2 -10 -20 -8 -39 2 -29 -1 -37 -17 -41 -22 -6 -22 -34 0 -41 10 -3 12 0 8 13
-5 12 -1 18 13 22 11 3 20 10 20 15 0 5 4 7 9 4 4 -3 6 -17 3 -31 -3 -18 0
-25 11 -25 10 0 13 -6 10 -20 -5 -17 -8 -18 -21 -8 -12 10 -16 10 -19 1 -3 -7
-9 -13 -14 -13 -6 0 -7 5 -4 10 9 15 -4 12 -21 -5 -9 -8 -12 -15 -8 -15 3 0 1
-7 -6 -15 -14 -17 0 -21 17 -4 16 16 33 2 33 -26 0 -12 7 -26 16 -29 13 -5 14
-9 4 -21 -10 -12 -9 -15 9 -15 16 0 21 6 21 25 0 14 4 25 8 25 5 0 7 -15 6
-32 -1 -18 -3 -39 -3 -45 -1 -7 -10 -13 -20 -13 -10 0 -21 -6 -24 -14 -4 -9
-14 -12 -26 -9 -12 3 -21 1 -21 -6 0 -6 11 -11 23 -11 35 0 39 -11 14 -32 -21
-19 -21 -20 -2 -18 39 4 46 0 43 -22 -2 -19 -9 -23 -40 -23 -21 0 -38 3 -38 8
0 4 -5 7 -10 7 -6 0 -6 -7 1 -18 6 -10 21 -18 33 -18 17 1 21 -5 21 -26 -1
-16 3 -28 7 -28 4 0 8 -7 8 -16 0 -8 -4 -12 -10 -9 -5 3 -10 1 -10 -4 0 -6 11
-11 24 -11 13 0 30 -8 37 -17 13 -15 11 -16 -10 -10 -33 8 -61 -9 -61 -38 0
-28 -19 -35 -19 -7 -1 49 -7 67 -26 73 -19 6 -18 7 5 16 18 8 27 7 32 -1 5 -6
8 -2 8 12 0 25 -21 29 -40 8 -15 -19 -40 -9 -40 15 0 10 -7 19 -15 19 -8 0
-15 5 -15 10 0 6 -7 10 -15 10 -19 0 -19 -19 0 -26 17 -7 21 -34 5 -34 -15 0
-45 52 -42 73 3 16 0 19 -22 13 -22 -5 -26 -3 -26 15 0 18 5 21 30 17 16 -3
30 -1 30 4 0 4 -4 8 -10 8 -5 0 -17 8 -27 19 -21 21 -63 34 -63 19 0 -6 8 -16
17 -23 15 -11 15 -15 4 -29 -7 -9 -19 -16 -26 -16 -8 0 -16 -6 -19 -12 -3 -7
-3 -1 0 15 4 15 2 27 -3 27 -7 0 -10 30 -4 63 0 5 10 5 22 2 33 -11 21 37 -13
52 -16 7 -28 18 -28 25 0 10 -2 10 -9 -1 -9 -14 -57 -19 -69 -6 -11 11 30 35
61 35 25 0 28 2 17 15 -7 9 -20 13 -28 10 -9 -3 -18 -2 -21 3 -9 15 -51 25
-51 13 0 -6 6 -11 14 -11 7 0 19 -6 25 -14 17 -20 -10 -28 -34 -10 -10 8 -28
11 -38 8 -15 -5 -19 -3 -14 10 3 8 2 18 -3 21 -6 3 -14 14 -20 24 -8 16 -6 17
18 13 21 -4 25 -2 15 8 -9 10 -8 18 4 37 13 20 14 26 3 33 -7 4 -10 15 -7 24
4 9 2 16 -3 16 -5 0 -12 -9 -15 -21 -5 -16 -14 -20 -43 -17 -36 3 -59 28 -25
28 11 0 19 7 19 18 0 18 -10 22 -53 22 -13 0 -23 5 -23 11 0 5 -4 8 -9 4 -18
-11 -23 17 -7 33 16 16 17 16 10 -2 -5 -14 -3 -17 12 -14 28 5 30 36 2 47 -13
5 -27 5 -33 0 -12 -12 -35 -11 -35 1 0 6 9 10 19 10 11 0 23 5 26 10 4 6 -5
10 -20 10 -19 0 -26 4 -22 14 3 8 3 17 -1 21 -4 4 -7 19 -7 33 0 23 -4 27 -27
24 -16 -1 -28 2 -28 7 0 6 -7 8 -15 5 -18 -7 -20 7 -2 25 9 11 10 14 0 18 -16
6 -17 43 -2 43 5 0 7 5 4 10 -10 16 -36 11 -33 -6 5 -27 -16 -26 -29 1 -9 19
-8 25 1 25 7 0 13 6 13 13 0 6 4 24 8 40 9 33 -12 38 -24 5 -8 -23 -51 -33
-51 -12 0 7 -6 15 -12 18 -7 3 -3 3 10 0 17 -4 22 -1 22 14 0 15 -5 19 -20 15
-24 -6 -25 0 -4 32 17 26 12 45 -12 45 -8 0 -14 5 -14 10 0 6 7 10 15 10 17 0
20 16 5 25 -6 4 -8 10 -5 15 2 4 -6 10 -20 12 -16 4 -25 1 -25 -8 0 -12 -52
-44 -72 -44 -18 0 -6 21 17 30 38 14 30 25 -17 24 -27 -1 -46 -7 -55 -19 -18
-26 -27 -12 -15 23 8 23 7 32 -6 45 -32 30 -38 42 -38 72 1 21 -4 31 -18 33
-27 6 -46 27 -46 50 0 47 -13 79 -41 97 -28 20 -28 20 -6 29 19 8 20 10 5 13
-10 3 -19 13 -19 24 -2 33 -4 38 -16 50 -9 9 -10 1 -6 -31 6 -40 5 -42 -18
-38 -23 3 -24 7 -24 73 0 58 -4 76 -25 105 -44 63 -133 160 -152 166 -11 3
-17 8 -14 11 3 4 1 12 -5 19 -9 11 -13 11 -25 -1 -8 -7 -14 -21 -14 -29 0 -9
-6 -16 -13 -16 -11 0 -26 38 -42 113 -3 16 -15 31 -28 36 -15 6 -26 24 -36 57
-16 54 -34 87 -44 78 -3 -4 -2 -15 3 -25 7 -12 7 -20 0 -24 -6 -4 -7 -11 -4
-17 3 -5 6 -29 6 -51 -1 -23 6 -52 14 -65 19 -28 2 -56 -27 -47 -23 8 -24 -1
-4 -21 9 -10 14 -34 13 -72 -2 -67 8 -102 28 -102 8 0 14 -6 14 -13 0 -21 -22
-37 -50 -37 -24 0 -28 6 -38 51 -7 28 -12 63 -12 77 -1 26 -1 26 -13 6 -13
-23 -37 -21 -37 3 0 21 -34 12 -38 -10 -2 -10 -1 -25 2 -34 5 -12 9 -13 21 -3
9 7 18 10 22 6 6 -6 7 -92 1 -176 -3 -28 1 -35 17 -38 15 -3 17 -1 9 8 -12 12
-7 60 7 60 5 0 9 -7 9 -15 0 -9 7 -18 15 -22 11 -4 15 -17 13 -44 -1 -22 -4
-39 -7 -39 -4 0 -7 -42 -8 -94 -1 -51 -7 -113 -14 -137 -7 -24 -14 -62 -15
-84 -1 -22 -10 -89 -19 -150 -10 -60 -17 -121 -17 -135 1 -14 2 -33 2 -42 1
-10 5 -18 11 -18 5 0 9 -4 9 -10 0 -5 -9 -10 -20 -10 -11 0 -20 -5 -20 -10 0
-6 -10 -24 -22 -40 -24 -33 -40 -124 -24 -140 7 -7 6 -14 -2 -22 -14 -14 -16
-78 -2 -78 5 0 13 6 17 13 4 8 29 38 56 68 l47 54 0 -33 c0 -20 -5 -32 -13
-32 -7 0 -28 -27 -47 -60 -19 -33 -37 -60 -41 -60 -4 0 -9 -7 -13 -15 -7 -19
8 -20 26 -2 11 12 16 10 31 -10 10 -12 14 -23 9 -23 -5 0 -21 -11 -35 -24 -15
-14 -29 -20 -32 -15 -14 21 -21 6 -20 -36 2 -50 -13 -70 -45 -60 -14 4 -20 2
-20 -8 0 -8 -11 -22 -25 -31 -28 -18 -33 -36 -10 -36 17 0 20 -16 5 -25 -5 -3
-10 -1 -10 4 0 6 -5 11 -11 11 -6 0 -8 -9 -4 -20 4 -13 2 -21 -7 -22 -7 0 -24
-2 -38 -4 -39 -3 -84 -15 -91 -22 -4 -4 -17 -38 -29 -77 -12 -38 -28 -79 -35
-90 -17 -29 -25 -87 -10 -81 13 5 -3 -83 -23 -119 -17 -35 -62 -134 -62 -139
0 -3 -18 -45 -41 -93 -22 -49 -50 -107 -61 -130 -10 -24 -24 -43 -29 -43 -5 0
-9 -6 -8 -12 1 -7 -2 -24 -8 -38 -6 -14 -17 -44 -24 -68 -9 -30 -17 -41 -27
-37 -14 5 -51 -31 -52 -51 0 -6 -15 -28 -34 -49 -19 -21 -37 -51 -40 -66 -3
-16 -15 -37 -26 -46 -11 -10 -20 -23 -20 -31 0 -20 -31 -62 -46 -62 -16 0 -44
-50 -44 -80 0 -24 -18 -26 -35 -4 -10 15 -16 12 -52 -26 -23 -23 -46 -39 -52
-36 -8 5 -10 -5 -6 -29 4 -31 1 -36 -14 -33 -22 4 -51 -19 -51 -39 0 -9 -6
-13 -14 -10 -10 4 -16 -2 -18 -16 -2 -12 -7 -22 -13 -23 -35 -3 -108 -29 -112
-40 -3 -8 -12 -14 -20 -14 -9 0 -12 -6 -8 -19 7 -22 -21 -37 -40 -21 -15 13
-50 -34 -41 -56 3 -8 -1 -14 -9 -14 -21 0 -19 -18 3 -23 13 -4 11 -5 -5 -6
-17 -1 -23 5 -23 19 0 22 -16 27 -23 8 -3 -9 -10 -6 -21 9 -10 13 -23 20 -31
17 -8 -4 -15 -3 -15 1 0 9 28 36 34 33 2 -2 8 1 13 6 8 9 -17 5 -49 -9 -13 -5
-18 -2 -18 10 0 9 -6 15 -12 12 -7 -2 -12 -16 -11 -31 2 -23 -1 -26 -24 -22
-30 6 -43 17 -25 23 25 9 11 23 -23 23 -19 0 -35 5 -35 11 0 6 -9 8 -21 4 -13
-4 -25 -2 -29 5 -11 17 -50 3 -50 -18 1 -15 2 -15 13 -1 10 14 16 14 45 2 39
-16 33 -37 -9 -28 -23 5 -28 4 -23 -8 6 -18 87 -41 92 -27 7 18 32 10 32 -10
0 -24 -36 -46 -44 -27 -3 6 -3 -16 -1 -50 4 -68 -11 -86 -33 -38 -13 27 -52
35 -52 10 0 -8 -4 -15 -10 -15 -5 0 -10 7 -10 15 0 8 -4 15 -10 15 -13 0 -13
-37 0 -45 6 -4 7 -11 4 -17 -5 -7 -2 -9 7 -6 9 4 19 -4 26 -18 6 -13 7 -22 3
-19 -5 3 -11 -1 -13 -7 -3 -8 -6 -6 -6 5 -1 20 -17 23 -24 5 -3 -10 -9 -8 -24
4 -27 25 -63 24 -63 -2 0 -11 7 -20 15 -20 9 0 12 6 9 15 -4 8 -1 15 5 15 6 0
11 -7 11 -15 0 -8 5 -15 11 -15 5 0 7 -5 4 -10 -4 -6 -1 -17 5 -25 15 -18 10
-18 -24 -5 -21 7 -26 6 -31 -10 -9 -29 1 -39 45 -46 22 -4 47 -16 59 -30 12
-13 26 -24 32 -24 5 0 7 -5 4 -10 -3 -6 -14 -10 -23 -10 -9 0 -22 -12 -29 -26
-10 -22 -9 -26 13 -36 13 -6 24 -15 24 -19 0 -15 -34 -19 -50 -4 -19 17 -40
20 -40 5 0 -5 -7 -10 -15 -10 -12 0 -14 -8 -9 -40 6 -37 5 -40 -16 -40 -19 0
-20 3 -10 15 14 17 4 37 -17 33 -9 -2 -18 3 -20 10 -3 6 1 12 7 12 6 0 18 7
26 15 14 13 13 15 -5 15 -17 0 -21 6 -21 30 0 17 -4 30 -9 30 -15 0 -23 -18
-11 -25 16 -10 12 -55 -5 -55 -18 0 -20 26 -2 33 10 4 10 6 0 6 -7 1 -13 9
-14 19 0 10 -3 12 -6 4 -2 -6 -9 -10 -14 -6 -5 3 -9 0 -9 -5 0 -6 5 -11 10
-11 6 0 10 -12 10 -26 0 -17 -6 -28 -20 -31 -25 -7 -27 -22 -3 -21 28 2 73
-11 73 -21 0 -5 -6 -16 -13 -23 -20 -21 -18 -68 3 -68 14 0 17 -5 12 -22 -3
-14 -2 -19 6 -14 7 4 13 1 13 -6 1 -7 5 1 9 17 7 26 8 27 9 6 1 -20 3 -21 16
-11 13 11 15 8 15 -15 0 -15 -9 -34 -21 -44 -20 -16 -20 -18 -4 -31 13 -11 18
-11 25 -1 4 8 24 15 44 16 29 2 36 -2 36 -17 0 -10 -6 -18 -13 -16 -7 2 -12
-1 -12 -7 0 -5 3 -9 7 -7 5 1 8 -4 8 -12 0 -8 4 -16 9 -18 4 -1 11 -13 15 -25
6 -19 4 -22 -10 -16 -14 5 -16 3 -11 -11 5 -12 0 -19 -16 -25 -28 -11 -60 -49
-52 -61 4 -6 -9 -10 -28 -10 -22 0 -37 -6 -41 -15 -5 -14 -36 -11 -34 3 0 4 0
20 -1 35 -1 24 -4 27 -22 22 -19 -6 -21 -4 -16 14 4 16 1 21 -14 21 -10 0 -19
5 -19 10 0 6 7 10 15 10 20 0 19 10 -3 26 -27 21 -39 16 -34 -15 3 -24 0 -29
-22 -35 -14 -3 -26 -13 -26 -21 0 -8 -5 -15 -12 -15 -9 0 -9 -3 -1 -11 13 -13
33 -4 33 17 0 8 5 15 10 16 29 4 35 1 35 -17 0 -13 7 -20 18 -20 26 0 38 -27
21 -43 -12 -11 -14 -10 -14 3 0 8 -3 15 -7 15 -5 0 -8 -23 -9 -50 0 -37 -5
-54 -20 -65 -17 -13 -17 -14 -2 -15 9 0 20 5 23 10 8 13 25 13 25 1 0 -5 -9
-12 -19 -16 -11 -3 -22 -19 -26 -35 -8 -37 -12 -39 -59 -31 -49 8 -57 26 -16
34 16 4 30 11 30 15 0 13 -83 7 -88 -7 -4 -13 -32 -15 -32 -2 0 5 -11 11 -25
13 -14 3 -25 1 -25 -4 0 -6 -11 -7 -24 -4 -14 3 -28 2 -31 -4 -6 -9 9 -12 74
-14 13 -1 26 -7 29 -14 2 -7 -2 -12 -9 -11 -8 1 -22 -1 -32 -6 -11 -4 -23 -3
-30 4 -17 17 -26 13 -20 -9 3 -11 10 -20 15 -20 10 0 0 -42 -12 -50 -4 -3 2
-12 14 -22 15 -11 27 -13 37 -7 11 7 11 11 1 17 -7 5 -10 16 -6 26 5 13 9 14
20 5 19 -16 30 -3 14 16 -10 13 -9 15 9 15 11 0 21 5 21 10 0 6 14 10 32 10
31 0 31 0 12 -19 -10 -10 -23 -18 -29 -17 -5 0 -9 -13 -7 -31 4 -36 -17 -56
-25 -24 -5 20 -7 19 -30 -14 -13 -19 -28 -35 -32 -35 -5 0 -12 -7 -15 -16 -8
-20 43 -84 67 -84 11 0 27 -10 36 -22 l18 -22 23 22 c28 26 46 28 54 7 3 -10
-1 -15 -12 -15 -10 0 -34 -14 -55 -31 -20 -17 -37 -26 -37 -20 0 5 5 13 10 16
22 14 8 25 -27 22 -45 -5 -65 1 -56 16 4 7 0 8 -13 2 -10 -4 -28 -9 -39 -10
-11 -2 -23 -4 -26 -4 -10 -2 -30 -52 -24 -62 11 -16 23 -10 29 16 9 35 36 21
35 -19 0 -17 1 -42 3 -55 2 -16 -2 -25 -14 -26 -10 -2 -20 1 -24 6 -3 5 -13 9
-23 9 -18 0 -34 28 -34 63 0 9 -4 17 -9 17 -6 0 -8 6 -5 14 3 8 -2 16 -14 19
-24 6 -24 -4 -1 -30 20 -24 22 -94 2 -117 -11 -14 -9 -16 9 -16 12 0 21 6 21
15 0 16 9 19 34 9 23 -9 20 -22 -7 -26 -12 -2 -23 -10 -23 -18 -3 -31 -5 -36
-24 -58 -17 -20 -22 -22 -34 -10 -9 7 -22 19 -31 26 -21 18 -14 37 14 36 18
-1 21 3 17 20 -3 11 2 28 11 38 15 17 15 19 0 36 -18 20 -22 33 -9 31 20 -3
21 3 4 21 -12 13 -25 18 -35 14 -18 -7 -24 -34 -7 -34 5 0 7 -6 4 -14 -3 -8 3
-19 15 -26 31 -16 26 -33 -7 -26 -15 3 -21 3 -14 0 13 -6 17 -36 5 -47 -3 -4
-17 0 -30 8 -13 9 -31 14 -41 13 -9 -2 -16 3 -15 10 2 6 -2 12 -8 12 -21 0 -2
-25 29 -39 20 -9 31 -20 28 -28 -3 -7 1 -13 9 -13 19 0 19 -9 -1 -31 -9 -10
-23 -15 -32 -12 -12 5 -14 1 -9 -25 4 -17 2 -34 -3 -37 -5 -3 -7 -12 -4 -20 4
-10 0 -12 -15 -8 -12 3 -24 9 -26 14 -3 4 -13 6 -23 3 -12 -4 -9 2 8 18 16 15
25 33 24 51 -1 16 5 31 12 34 8 3 14 14 14 26 0 19 -1 19 -19 3 -10 -9 -25
-14 -34 -11 -20 8 -32 -12 -16 -31 14 -17 12 -20 -24 -29 -22 -6 -26 -4 -21 9
4 11 1 16 -10 16 -9 0 -16 -6 -16 -14 0 -8 -6 -17 -12 -19 -7 -3 5 -6 27 -7
39 -1 40 -1 17 -17 -12 -8 -22 -21 -22 -28 0 -8 -6 -15 -12 -17 -10 -4 -14
-230 -16 -1076 l-2 -1072 180 0 c130 0 180 3 180 12 0 11 -117 218 -129 228
-3 3 -11 14 -17 24 -17 32 -34 30 -47 -3 -14 -37 -27 -40 -27 -6 0 14 5 25 10
25 6 0 10 8 10 18 0 10 8 29 18 42 22 32 69 117 83 152 13 32 25 36 33 10 7
-20 60 -55 70 -45 3 4 13 -2 21 -13 9 -12 14 -14 15 -6 0 7 5 10 10 7 19 -11
0 -23 -54 -36 -42 -9 -58 -9 -76 1 -21 11 -26 10 -47 -16 -29 -37 -29 -59 1
-87 31 -29 101 -48 202 -54 102 -7 125 4 204 100 50 61 66 75 107 86 56 17
115 42 124 55 4 4 10 3 13 -3 4 -6 14 -11 22 -11 8 0 23 -9 34 -20 11 -11 27
-20 35 -20 8 0 15 -7 15 -15 0 -8 5 -15 10 -15 6 0 10 -7 10 -16 0 -10 6 -14
15 -10 9 3 15 0 15 -10 0 -12 6 -15 25 -10 18 5 25 2 25 -8 0 -11 8 -12 35 -6
19 4 37 4 40 -1 7 -10 37 0 48 15 5 8 10 7 16 -3 4 -7 25 -13 45 -13 20 0 39
-4 42 -9 3 -5 -6 -9 -20 -9 -17 0 -26 -6 -26 -16 0 -13 8 -15 43 -9 48 8 127
42 127 56 0 5 13 9 29 9 16 0 34 6 40 14 7 8 26 17 44 20 47 9 77 33 77 63 0
17 14 38 42 64 24 22 47 39 53 39 5 0 21 -16 35 -35 14 -19 29 -35 34 -35 15
0 -18 220 -49 330 -7 25 -16 64 -20 87 -4 24 -11 45 -16 49 -5 3 -9 15 -9 27
0 13 -7 32 -15 43 -8 12 -19 39 -24 60 -5 22 -17 59 -25 84 -20 58 -56 181
-56 192 0 11 63 10 93 -1 17 -7 26 -20 31 -44 4 -19 13 -40 20 -46 7 -6 19
-32 26 -56 7 -25 23 -56 36 -70 18 -19 24 -38 24 -68 0 -80 3 -107 11 -107 5
0 9 -13 9 -29 0 -17 4 -32 9 -35 4 -3 11 -25 15 -48 9 -55 37 -117 54 -118 6
0 12 -5 12 -11 0 -23 44 -99 57 -99 7 0 16 -13 20 -30 3 -16 10 -30 15 -30 6
0 8 -15 3 -36 -6 -34 -5 -36 14 -31 28 7 37 -10 17 -32 -22 -24 -20 -32 7 -26
17 5 24 2 24 -9 0 -9 -4 -16 -9 -16 -4 0 -8 -9 -8 -21 0 -15 5 -19 15 -15 10
4 15 -1 15 -15 0 -15 -5 -19 -15 -15 -12 4 -13 2 -2 -17 6 -12 16 -25 21 -28
5 -4 7 -21 4 -38 -3 -19 1 -36 9 -43 10 -8 11 -14 1 -25 -8 -10 -8 -17 -1 -21
17 -11 35 -53 29 -67 -2 -7 2 -19 10 -26 12 -10 14 -24 9 -56 l-6 -43 3681 0
c3262 0 3681 2 3686 15 4 8 12 15 19 15 16 0 18 82 2 92 -9 6 -9 8 1 8 6 0 12
9 12 20 0 11 -7 20 -15 20 -8 0 -15 5 -15 10 0 6 -7 27 -15 47 -12 28 -18 34
-27 25 -23 -23 -38 -14 -32 18 5 22 2 31 -10 36 -19 7 -21 30 -3 37 7 4 6 6
-4 6 -11 1 -19 13 -23 36 -7 37 -15 42 -34 23 -9 -9 -12 -8 -12 5 0 9 5 17 10
17 6 0 10 16 10 35 0 19 -4 35 -8 35 -15 0 -34 87 -24 107 8 13 7 22 -5 35
-12 14 -13 21 -4 32 10 11 9 16 -5 24 -13 7 -16 18 -11 45 4 25 1 39 -9 48 -8
6 -14 29 -14 49 0 22 -5 40 -12 43 -10 3 -10 7 0 19 7 10 10 26 7 41 -4 14 -2
28 4 31 6 4 8 20 4 36 -4 23 -1 31 12 36 11 5 21 1 27 -9 5 -10 16 -17 23 -17
18 0 20 16 3 23 -10 4 -10 6 0 6 6 1 12 6 12 12 0 6 -7 8 -17 5 -9 -4 -19 -2
-23 4 -4 6 -16 13 -26 14 -20 3 -34 46 -15 46 6 0 11 7 11 15 0 9 -6 12 -16 8
-12 -4 -15 -1 -12 15 1 11 -5 29 -15 40 -16 17 -17 26 -8 60 9 33 15 39 31 35
11 -3 20 0 20 6 0 6 -9 11 -20 11 -15 0 -20 6 -19 23 6 64 -1 99 -21 104 -18
5 -18 7 -4 28 10 16 15 43 13 83 -1 32 1 63 4 69 4 6 7 37 7 69 0 81 22 220
38 236 6 6 12 18 12 25 0 7 9 17 20 23 16 9 20 8 20 -5 0 -9 7 -18 15 -21 8
-4 15 -17 15 -30 0 -16 9 -28 29 -39 42 -21 50 -1 13 33 -29 28 -49 87 -32 97
6 3 10 -4 10 -15 0 -16 5 -20 15 -16 8 3 15 1 15 -4 0 -5 15 -12 34 -15 34 -7
40 -18 48 -82 1 -7 7 -13 14 -13 10 0 13 30 13 120 1 107 -1 120 -17 121 -14
0 -14 2 -2 7 17 8 26 42 11 42 -5 0 -12 -4 -16 -9 -5 -10 -22 -3 -83 36 -20
12 -29 24 -23 28 7 4 1 19 -16 42 l-28 36 28 -6 c24 -7 27 -5 27 16 0 13 8 31
18 41 11 9 24 34 31 55 7 24 19 41 31 44 11 3 20 11 20 18 0 7 -3 9 -7 6 -9
-9 -43 22 -43 40 0 15 26 18 35 3 4 -6 11 -8 16 -4 6 4 6 11 -2 20 -9 11 -8
14 4 14 13 0 16 21 16 140 1 118 -1 139 -13 134 -8 -3 -22 -17 -31 -31 -12
-18 -23 -24 -41 -20 -21 4 -24 1 -18 -17 4 -11 12 -25 19 -31 7 -5 15 -18 19
-29 5 -16 3 -17 -21 -11 -15 3 -32 12 -36 18 -6 9 -10 9 -14 0 -2 -7 -16 -13
-29 -13 -20 0 -24 5 -24 29 0 16 7 34 15 41 19 16 19 46 0 54 -14 5 -16 1 -19
-46 -1 -9 -4 -19 -8 -23 -4 -4 -4 -13 -2 -20 4 -11 -23 -24 -49 -25 -10 0 -1
32 19 74 8 16 14 37 14 46 0 26 30 33 52 14 10 -10 19 -15 21 -13 20 35 26 51
21 62 -3 8 2 21 10 30 9 9 16 28 16 44 0 15 7 41 15 57 8 15 15 35 15 42 0 8
10 14 21 14 19 0 20 -4 14 -36 -5 -32 -4 -36 10 -30 9 3 19 6 21 6 2 0 4 16 4
35 0 31 -3 35 -26 35 -14 0 -23 4 -20 9 4 5 -4 7 -15 4 -20 -6 -21 -3 -15 23
4 16 16 40 27 54 38 49 42 71 18 96 -24 26 -39 23 -39 -7 0 -13 -7 -19 -21
-19 -17 0 -19 3 -10 13 8 10 7 17 -2 26 -9 10 -7 16 11 31 15 12 19 21 11 26
-6 3 -15 0 -20 -7 -13 -21 -11 -5 6 35 9 21 22 36 33 37 15 0 14 1 -2 8 -14 5
-16 10 -8 15 7 4 10 17 6 32 -4 14 -2 24 5 24 6 0 8 6 5 14 -3 8 -1 17 5 21 6
3 11 17 11 31 0 13 3 24 8 24 4 0 13 24 20 53 13 59 16 631 2 587 -4 -14 -5
-35 -3 -47 3 -13 -4 -37 -16 -56 -12 -19 -21 -46 -21 -60 0 -14 -5 -38 -11
-54 -14 -36 -18 -131 -7 -161 4 -13 5 -29 1 -35 -4 -7 -8 -14 -8 -17 -4 -32
-19 -51 -36 -47 -15 4 -19 0 -19 -24 0 -16 5 -29 10 -29 6 0 10 5 10 10 0 13
37 13 45 0 4 -6 -1 -23 -11 -37 -15 -23 -18 -25 -28 -11 -10 13 -15 14 -30 3
-16 -13 -17 -14 0 -34 10 -11 21 -18 26 -15 11 7 10 -20 -1 -48 -20 -50 -24
-64 -22 -76 1 -8 -3 -20 -9 -27 -6 -7 -10 -19 -8 -27 1 -7 -4 -35 -11 -61 -11
-39 -17 -47 -35 -45 -17 2 -20 -2 -18 -19 2 -13 -2 -23 -7 -23 -6 0 -11 5 -11
10 0 6 -4 10 -10 10 -5 0 -10 -13 -10 -28 0 -15 -4 -32 -8 -38 -11 -12 -32
-86 -32 -113 0 -22 -16 -29 -22 -9 -7 20 -30 -3 -24 -24 3 -14 -3 -27 -17 -39
-20 -16 -20 -18 -4 -24 9 -4 17 -16 17 -27 0 -10 -4 -17 -9 -13 -10 5 -61 -43
-61 -57 0 -5 8 -8 17 -8 13 0 9 -7 -15 -30 -36 -33 -74 -112 -66 -135 4 -8 0
-30 -9 -48 -8 -17 -17 -59 -21 -91 -4 -33 -11 -65 -17 -72 -5 -6 -9 -36 -9
-65 0 -95 -2 -101 -26 -95 -17 5 -28 -1 -43 -22 -18 -26 -18 -29 -3 -39 9 -6
14 -14 10 -18 -4 -4 -19 0 -32 9 -14 8 -32 13 -40 10 -11 -4 -16 0 -16 14 0
12 -5 24 -11 28 -6 3 -8 20 -5 38 3 17 2 47 -2 66 l-8 35 -15 -30 c-16 -33
-49 -47 -49 -20 0 8 7 18 15 21 19 8 19 23 1 43 -15 18 -28 124 -16 137 8 9
18 69 23 130 1 17 7 37 13 45 6 8 14 43 18 79 3 36 10 82 15 103 5 20 5 39 1
42 -10 6 -20 -19 -20 -50 0 -15 -7 -25 -21 -28 -18 -5 -21 -12 -17 -43 3 -29
1 -38 -14 -42 -21 -5 -23 -13 -6 -30 9 -9 9 -12 0 -12 -7 0 -12 -9 -12 -20 0
-11 -5 -20 -11 -20 -6 0 -9 -9 -6 -20 3 -11 1 -22 -4 -25 -4 -3 -6 -12 -2 -20
3 -9 -1 -15 -10 -15 -8 0 -17 -7 -21 -15 -8 -23 -23 -18 -30 11 -5 20 -12 25
-26 21 -11 -3 -23 -1 -26 4 -3 5 0 9 7 9 7 0 9 10 7 24 -4 19 -1 22 16 18 20
-5 20 -5 3 15 -17 20 -17 22 3 61 16 30 19 50 15 76 -6 31 -9 34 -22 21 -8 -8
-21 -15 -29 -15 -8 0 -15 -10 -15 -22 -3 -48 -4 -53 -18 -53 -8 0 -16 -6 -18
-12 -3 -7 3 -13 14 -13 13 0 11 -4 -9 -14 -51 -27 -52 -28 -27 -47 20 -15 21
-19 7 -19 -25 0 -22 -27 3 -35 28 -9 15 -20 -51 -39 -54 -15 -55 -15 -72 7 -9
12 -25 22 -34 22 -17 0 -34 25 -17 25 31 1 70 84 51 107 -5 7 -12 25 -14 40
-2 15 -6 44 -10 63 -4 28 -1 39 15 54 22 20 28 51 11 61 -5 3 -10 24 -10 46 0
21 -4 39 -8 39 -4 0 -8 27 -7 61 0 33 -3 63 -6 65 -8 5 -23 122 -20 157 1 15
-3 27 -8 27 -6 0 -11 11 -11 24 0 26 -21 48 -28 28 -2 -6 -9 -9 -17 -6 -8 4
-13 -3 -13 -18 0 -13 -3 -33 -7 -44 -5 -17 -2 -23 18 -28 36 -9 25 -56 -14
-56 -10 0 -20 -3 -20 -7 -1 -5 -3 -17 -4 -28 -4 -33 -24 -75 -34 -75 -6 0 -16
-27 -23 -60 -6 -33 -16 -60 -20 -60 -4 0 -8 -8 -8 -17 -1 -27 -44 -169 -56
-184 -6 -8 -15 -27 -21 -44 -6 -16 -15 -39 -19 -50 -4 -11 -6 -26 -5 -34 1 -7
0 -25 -4 -39 -5 -20 -8 -23 -15 -12 -5 8 -12 11 -16 7 -4 -4 -2 -13 4 -19 16
-16 15 -29 0 -26 -9 2 -12 -7 -10 -28 3 -37 -24 -162 -39 -180 -6 -7 -8 -18
-5 -23 4 -6 -3 -31 -15 -56 -16 -33 -24 -43 -30 -33 -13 20 -10 38 6 38 19 0
19 14 -1 30 -11 10 -14 23 -8 54 8 51 14 62 25 45 5 -9 7 -3 5 16 -2 16 2 38
8 47 7 13 7 21 0 28 -8 8 -15 3 -23 -18 -12 -29 -40 -46 -72 -43 -9 1 -22 -5
-29 -14 -7 -8 -19 -15 -27 -15 -30 0 -63 -32 -63 -62 0 -25 -6 -32 -40 -45
-22 -9 -42 -24 -45 -34 -3 -9 -17 -24 -30 -33 -14 -9 -25 -25 -25 -36 0 -10
-5 -31 -12 -45 -13 -30 -1 -49 14 -21 8 15 12 16 19 5 5 -8 2 -20 -7 -30 -22
-24 -21 -89 1 -105 18 -13 17 -15 -5 -60 -31 -59 -33 -74 -9 -74 10 0 18 -3
18 -7 -4 -25 3 -42 15 -37 8 3 16 -3 19 -15 3 -14 0 -21 -9 -21 -17 0 -19 -26
-3 -36 8 -4 2 -12 -15 -21 -29 -15 -34 -38 -10 -47 8 -3 12 -11 9 -16 -4 -6 4
-19 17 -30 19 -16 20 -19 6 -20 -21 0 -24 -16 -5 -23 7 -3 4 -6 -6 -6 -10 -1
-16 -5 -13 -10 3 -5 -1 -14 -9 -21 -19 -16 -19 -29 2 -52 15 -17 15 -18 -14
-18 -35 0 -48 -26 -27 -54 10 -14 16 -15 33 -7 16 9 19 9 15 -2 -3 -8 2 -17
10 -20 22 -9 20 -24 -4 -30 -20 -5 -28 -27 -10 -27 6 0 10 -4 10 -8 0 -5 -21
-6 -47 -1 -27 4 -50 5 -52 3 -2 -2 1 -4 7 -4 7 0 12 -7 12 -16 0 -11 6 -13 19
-9 11 3 23 1 26 -6 9 -14 -13 -29 -32 -22 -7 3 -13 0 -13 -6 0 -5 -8 -18 -19
-28 -21 -21 -41 -74 -42 -112 0 -23 -1 -24 -9 -6 -5 11 -9 14 -9 8 -1 -7 -7
-13 -15 -13 -15 0 -16 -35 -2 -58 9 -14 -31 -17 -53 -3 -16 10 -41 4 -41 -10
0 -6 10 -8 23 -7 23 3 32 -15 8 -19 -22 -3 -39 7 -44 27 -6 23 4 39 34 54 13
7 23 20 22 30 -1 13 2 15 10 7 15 -15 27 -14 27 4 0 8 -4 15 -9 15 -5 0 -16 3
-25 6 -10 4 -16 1 -16 -9 0 -17 -27 -30 -35 -17 -3 5 3 11 12 13 11 3 8 5 -9
6 -18 1 -28 7 -28 16 0 31 -15 14 -17 -20 -3 -29 0 -35 17 -35 11 0 20 -4 20
-10 0 -5 -4 -10 -9 -10 -13 0 -23 -62 -11 -74 14 -14 12 -26 -5 -26 -20 0 -19
-29 1 -37 9 -3 20 0 25 8 7 12 9 12 9 -1 1 -20 35 -60 52 -60 8 -1 7 -4 -4
-11 -10 -5 -18 -17 -18 -24 0 -27 -17 -15 -23 15 -6 27 -10 30 -47 30 -39 0
-40 1 -40 35 0 24 -6 39 -20 47 -11 7 -20 18 -20 24 0 6 -9 19 -19 28 -11 10
-17 24 -14 32 8 20 -14 17 -26 -3 -10 -17 -10 -17 -11 0 0 9 -6 17 -12 17 -9
0 -8 4 2 11 12 9 11 10 -5 4 -35 -12 -40 -10 -37 9 3 15 -1 18 -22 14 -18 -4
-26 -1 -26 8 0 8 -4 14 -10 14 -5 0 -8 15 -7 33 2 17 -1 38 -6 44 -12 16 -41
17 -31 1 4 -7 3 -8 -4 -4 -15 9 -15 17 3 40 11 15 17 17 29 7 11 -10 15 -9 19
6 3 10 5 3 6 -14 0 -18 5 -33 11 -33 15 0 0 63 -19 80 -9 8 -15 22 -14 30 3
11 -6 15 -28 16 -22 1 -27 -2 -17 -8 9 -7 4 -8 -16 -3 -25 5 -28 4 -23 -15 5
-19 1 -20 -49 -18 -45 2 -53 5 -48 18 3 8 7 22 8 29 2 8 8 17 14 19 7 2 12 8
12 13 0 14 39 68 73 102 31 31 28 49 -3 29 -11 -7 -22 -12 -25 -12 -10 0 -45
84 -37 89 5 3 7 20 7 36 -3 55 -6 61 -15 37 -11 -25 -42 -29 -60 -7 -7 8 -24
15 -37 15 -22 0 -24 -3 -19 -25 6 -23 3 -25 -24 -25 -16 0 -29 -3 -29 -7 5
-31 -2 -44 -22 -38 -16 5 -20 3 -17 -12 2 -13 -4 -18 -22 -19 -43 -2 -45 -3
-88 -40 -35 -29 -40 -39 -32 -54 11 -20 -6 -41 -19 -24 -18 26 -101 49 -86 24
3 -6 0 -17 -8 -25 -12 -11 -17 -12 -25 -2 -8 9 -6 16 9 25 10 7 19 19 19 27 0
9 11 21 25 27 14 6 25 17 25 23 0 22 97 111 144 133 25 12 46 27 46 33 0 7 11
8 30 4 24 -5 29 -4 24 8 -4 11 5 19 29 28 20 7 40 23 46 35 5 12 20 25 32 29
20 7 20 8 6 17 -18 10 -23 38 -7 38 6 0 10 -4 10 -10 0 -5 5 -10 10 -10 6 0
10 7 10 15 0 8 -9 15 -20 15 -24 0 -25 15 -6 52 13 25 13 28 -1 28 -9 0 -13 3
-10 7 4 3 2 12 -4 20 -9 10 -7 13 9 13 18 0 21 9 29 73 5 40 5 87 0 105 -6 26
-4 40 9 60 10 16 16 43 15 70 -1 42 15 72 39 72 7 0 9 8 5 19 -3 11 -1 22 5
26 5 3 10 17 10 30 0 13 4 27 10 30 5 3 10 19 10 36 0 16 4 29 9 29 13 0 41
58 41 86 0 13 5 26 11 29 5 4 9 17 7 28 -1 12 1 27 5 34 4 6 4 18 1 27 -5 13
-9 14 -20 5 -8 -6 -14 -16 -14 -21 0 -5 -13 -26 -29 -46 -16 -20 -35 -55 -42
-77 -17 -52 -15 -50 -34 -31 -18 18 -35 21 -35 6 0 -5 5 -10 10 -10 15 0 34
-54 21 -58 -5 -2 -7 -10 -4 -18 3 -8 1 -14 -5 -14 -14 0 -35 -57 -28 -76 8
-20 -20 -54 -43 -54 -20 0 -49 -42 -32 -48 20 -7 12 -25 -9 -19 -16 4 -20 0
-20 -19 0 -13 -9 -28 -20 -34 -11 -6 -20 -17 -20 -25 0 -8 -7 -15 -15 -15 -12
0 -13 5 -4 27 6 15 15 33 21 40 8 9 2 17 -21 30 -33 19 -40 33 -17 33 25 0 25
59 0 90 -26 30 -22 45 8 29 11 -6 21 -9 22 -7 1 2 8 11 15 21 13 16 11 18 -22
14 -19 -2 -41 -1 -48 3 -18 12 -1 29 23 22 14 -3 19 -2 14 6 -4 7 -13 12 -20
12 -8 0 -16 14 -20 32 -6 33 -20 30 -28 -7 -5 -19 -5 -19 -13 -1 -5 11 -3 21
5 26 18 11 -6 54 -27 46 -8 -3 -17 -6 -19 -6 -3 0 0 -9 6 -20 15 -27 -9 -27
-33 0 -9 11 -12 20 -6 20 6 0 10 15 9 33 -3 47 10 79 28 72 11 -4 13 0 8 17
-3 13 -6 34 -6 46 0 15 -7 26 -19 29 -27 7 -35 53 -9 53 10 0 21 7 24 15 9 22
24 18 24 -6 0 -11 4 -18 9 -15 13 8 7 51 -7 48 -7 -1 -12 2 -12 8 0 5 -9 10
-20 10 -13 0 -20 -7 -20 -20 0 -13 -7 -20 -19 -20 -17 0 -19 5 -14 38 3 20 12
47 19 59 13 20 13 23 -1 23 -18 0 -21 50 -4 67 9 9 5 14 -15 19 -25 6 -37 24
-16 24 6 0 10 15 10 34 0 19 -4 38 -10 41 -19 12 -10 35 15 41 18 4 25 13 25
30 0 13 5 24 11 24 5 0 7 5 3 11 -3 6 -14 9 -24 6 -20 -5 -36 19 -17 26 6 2
-3 12 -21 22 -39 23 -42 45 -6 45 22 0 25 -2 14 -15 -11 -13 -8 -15 15 -15 24
0 26 2 14 16 -10 13 -10 17 0 24 17 10 5 16 -36 18 -18 1 -33 -2 -33 -8 0 -5
-12 -10 -26 -10 -22 0 -24 3 -15 14 9 11 9 15 0 18 -9 3 -6 11 8 25 21 21 22
63 2 63 -5 0 -7 -11 -3 -24 5 -21 3 -24 -15 -19 -21 5 -20 15 12 57 10 13 16
15 21 8 10 -17 36 -15 36 3 0 8 -4 15 -10 15 -20 0 -9 26 20 45 34 23 38 33
13 31 -23 -1 -69 -34 -60 -42 5 -6 -29 -44 -39 -44 -1 0 2 15 8 33 6 17 13 51
15 74 4 35 2 43 -11 43 -21 0 -20 4 8 35 14 15 33 26 43 25 31 -4 36 0 23 15
-7 8 -21 15 -31 15 -11 0 -19 7 -19 15 0 11 8 14 30 10 22 -4 30 -1 30 10 0 8
-5 15 -11 15 -6 0 -9 14 -6 36 4 25 1 37 -9 41 -23 8 -16 23 10 23 15 0 32
-11 45 -27 19 -27 20 -27 21 -6 0 27 -40 92 -57 93 -7 0 -13 3 -13 6 0 11 37
53 42 48 3 -2 13 7 22 20 10 16 12 27 6 31 -15 9 -2 25 14 19 8 -3 16 -14 19
-25 6 -21 32 -26 43 -8 4 7 -4 20 -17 30 l-24 19 26 0 c30 0 63 -30 42 -37 -7
-3 -13 -13 -13 -24 0 -15 7 -19 31 -19 29 0 30 1 15 22 -18 25 -21 53 -6 43
19 -12 10 7 -12 26 -13 10 -18 18 -11 19 6 0 18 3 27 6 11 4 16 0 16 -14 0
-12 9 -23 21 -27 24 -8 39 3 20 14 -21 13 23 51 59 51 20 0 30 5 30 15 0 8 5
15 11 15 8 0 9 13 5 41 -6 38 -5 41 13 36 11 -3 29 5 44 19 14 12 27 20 30 17
9 -9 47 8 47 21 0 6 9 29 20 50 10 22 17 42 15 47 -3 4 4 5 15 2 14 -4 20 0
20 11 0 13 6 15 28 10 15 -4 31 -13 35 -21 10 -16 28 -17 26 -1 -1 7 0 24 1
38 2 18 4 20 7 7 5 -21 33 -23 33 -2 0 8 -6 15 -12 15 -7 0 0 11 16 23 20 16
26 26 17 31 -6 4 -9 11 -6 15 2 5 5 45 6 90 2 69 5 81 20 81 19 0 29 -19 29
-56 0 -15 -6 -24 -15 -24 -19 0 -19 -24 0 -40 12 -10 13 -16 4 -26 -8 -10 -8
-14 0 -14 6 0 11 -16 11 -36 0 -19 4 -43 9 -53 5 -9 12 -59 16 -111 3 -52 9
-113 14 -135 4 -22 7 -62 6 -90 -1 -28 4 -63 12 -79 9 -16 13 -41 9 -57 -3
-16 -1 -53 5 -81 5 -29 12 -90 14 -136 4 -91 8 -102 34 -102 36 0 71 39 72 78
0 21 0 70 0 111 1 42 4 69 9 61 10 -17 34 25 26 47 -3 8 -1 24 5 36 7 12 12
35 11 51 -1 30 24 70 38 61 10 -6 3 -130 -9 -153 -13 -25 -4 -53 15 -45 7 3
17 -2 20 -11 12 -30 22 -16 17 23 -4 28 3 65 27 133 18 51 37 99 42 105 6 7 8
24 6 38 -4 18 -1 25 9 25 12 0 14 8 9 35 -5 26 -3 40 9 51 20 20 19 31 -3 36
-21 6 -33 -6 -51 -50 -11 -26 -11 -35 -1 -47 10 -12 10 -15 -1 -15 -24 0 -40
-16 -33 -33 3 -9 9 -15 13 -13 4 3 13 1 21 -4 12 -7 12 -12 2 -22 -9 -9 -15
-8 -27 8 -15 19 -15 19 -30 0 -12 -15 -17 -17 -29 -7 -12 10 -18 7 -31 -19 -9
-17 -20 -28 -24 -25 -5 2 -14 -2 -21 -10 -7 -8 -16 -15 -21 -15 -16 0 -10 26
12 51 12 13 28 34 37 47 8 13 32 32 54 43 21 11 38 26 38 34 0 8 4 15 9 15 5
0 12 16 16 36 5 28 2 39 -11 49 -17 12 -17 15 6 61 14 27 26 51 27 53 2 2 9
-2 17 -8 12 -10 16 -8 22 11 10 33 14 64 15 136 1 59 21 132 35 132 4 0 17
-11 29 -25 23 -24 23 -52 0 -107 -4 -9 -4 -22 0 -27 8 -13 45 9 45 26 0 7 9
40 21 74 18 52 20 66 9 102 -8 31 -8 55 0 91 8 39 8 51 -2 58 -9 6 -6 7 8 4
19 -6 21 0 32 76 7 46 17 108 22 138 6 30 8 65 5 78 -3 12 -1 22 5 22 14 0 13
53 -2 68 -7 7 -8 12 -2 12 15 0 35 47 28 65 -4 8 -12 15 -19 15 -7 0 -15 5
-17 12 -3 7 -7 5 -11 -6 -4 -9 -3 -15 2 -11 15 8 25 -15 12 -28 -8 -8 -11 -8
-11 1 0 6 -7 9 -15 6 -12 -5 -14 0 -9 27 4 19 13 40 22 46 9 7 13 16 9 19 -4
4 -3 12 2 18 17 22 19 60 5 87 -16 32 -19 89 -4 89 5 0 14 -9 20 -20 15 -28
26 -18 34 30 5 32 10 40 27 40 15 0 19 5 16 15 -4 8 -2 17 4 21 12 7 6 127 -8
164 -11 28 -11 135 0 146 15 15 22 -10 26 -87 2 -48 7 -79 13 -77 6 2 21 42
35 88 13 47 29 88 35 91 6 4 8 12 4 17 -4 6 1 44 10 84 22 103 19 268 -5 268
-4 0 -9 23 -10 51 -1 29 -4 56 -7 61 -9 15 7 88 20 88 6 0 12 8 13 18 5 75 10
109 17 120 4 7 3 18 -3 25 -6 8 -7 36 -4 67 8 75 4 132 -10 147 -12 12 -7 40
9 54 12 10 14 22 9 54 -4 22 -9 72 -10 110 -2 39 -6 87 -9 107 -3 20 -2 39 3
42 4 3 6 17 3 31 -2 14 0 25 7 25 6 0 11 -10 11 -22 3 -90 10 -191 14 -195 3
-3 11 1 18 8 10 11 13 59 12 194 0 103 4 185 9 193 7 9 4 17 -9 27 -15 11 -17
18 -8 32 6 10 12 36 13 58 2 49 5 67 13 80 8 14 10 300 2 348 -5 33 -4 37 15
37 15 0 20 -6 20 -27 0 -79 2 -103 11 -108 5 -3 12 0 17 7 12 20 13 78 1 78
-6 0 -6 6 2 15 9 11 11 36 8 80 -6 69 -23 104 -42 85 -16 -16 -26 -12 -26 10
0 14 7 20 23 21 16 0 18 2 7 7 -8 4 -16 18 -18 32 -1 14 -7 27 -12 28 -20 7
-9 22 16 22 14 0 23 -4 19 -10 -3 -5 0 -10 9 -10 8 0 17 6 20 13 3 6 4 -5 1
-25 -4 -23 0 -51 11 -75 14 -32 19 -58 24 -118 1 -5 0 -41 -1 -78 -2 -56 1
-70 17 -82 27 -19 33 -8 39 64 2 34 7 71 10 82 4 11 2 19 -4 19 -6 0 -11 11
-11 25 0 14 4 25 8 25 16 0 39 -35 45 -67 5 -27 3 -33 -11 -33 -16 -1 -15 -1
1 -11 17 -10 17 -13 3 -34 -11 -16 -12 -26 -5 -30 6 -4 8 -14 5 -22 -4 -9 -1
-21 4 -29 12 -14 14 -50 7 -104 -3 -21 2 -57 12 -88 17 -49 17 -52 1 -47 -16
5 -17 -6 -14 -127 5 -156 12 -218 25 -218 5 0 7 -11 3 -25 -8 -31 11 -33 27
-3 10 18 8 24 -7 35 -15 11 -16 15 -5 22 7 5 11 13 7 19 -3 6 -3 18 1 28 6 16
7 16 19 -1 13 -17 15 -15 29 18 19 46 45 50 45 7 0 -16 5 -30 10 -30 6 0 10
11 10 24 0 14 5 28 10 31 6 4 8 15 5 25 -4 13 1 23 17 31 l22 12 -24 9 c-14 5
-37 7 -53 4 -15 -3 -38 0 -52 6 -28 12 -34 45 -10 54 8 4 15 13 15 20 0 8 7
17 15 20 8 4 15 14 15 24 0 11 5 22 11 25 5 4 8 12 6 18 -2 7 3 20 11 30 16
18 18 47 12 137 -1 25 3 59 10 75 30 70 37 123 16 131 -17 7 -22 39 -7 49 19
11 22 109 6 180 -9 39 -20 99 -26 134 -9 63 -16 99 -26 133 -3 13 0 16 11 12
9 -3 16 -1 16 5 0 6 -6 11 -14 11 -9 0 -16 18 -20 50 -4 28 -11 50 -16 50 -6
0 -10 14 -10 31 0 28 2 30 17 18 15 -12 16 -12 9 6 -5 11 -11 28 -13 38 -3 9
-13 17 -22 17 -23 0 -28 58 -19 213 5 67 3 77 -11 75 -13 -3 -15 5 -12 42 1
25 8 51 14 58 8 11 7 16 -6 23 -23 14 -21 39 3 39 22 0 27 16 8 23 -10 3 -10
7 0 19 9 12 10 18 2 23 -7 4 -19 -3 -27 -15 -15 -22 -16 -21 -34 20 -23 51
-23 50 -3 50 9 0 24 -10 34 -22 15 -19 20 -20 34 -9 13 11 14 16 4 29 -11 13
-10 15 9 10 15 -4 23 0 26 14 4 14 2 18 -9 14 -29 -11 -54 12 -54 49 0 19 -4
35 -10 35 -5 0 -10 -4 -10 -10 0 -5 -7 -10 -16 -10 -9 0 -14 -6 -11 -12 2 -7
9 -12 15 -11 5 1 9 -8 8 -21 0 -13 -4 -22 -8 -20 -4 3 -5 -2 -2 -10 8 -20 -15
-21 -52 -1 -24 12 -26 15 -9 16 11 1 26 1 33 0 19 -3 14 12 -13 41 -34 36 -49
78 -35 92 8 8 9 6 5 -6 -6 -14 -2 -18 14 -18 25 0 26 8 6 35 -10 12 -13 30 -9
51 3 18 1 35 -5 38 -20 13 -11 25 24 32 19 3 35 11 35 16 0 6 -16 8 -35 6 -24
-3 -35 0 -35 9 0 7 5 13 10 13 6 0 10 11 10 24 0 14 4 28 10 31 13 8 5 51 -9
47 -6 -1 -12 13 -12 33 -3 56 -4 60 -12 66 -4 3 -4 17 1 30 10 28 6 112 -8
152 -9 26 9 93 23 85 3 -2 9 0 13 5 4 4 1 7 -7 7 -11 0 -11 2 1 10 13 8 13 10
-2 10 -15 0 -17 9 -13 78 2 43 5 84 7 92 2 11 -4 14 -21 12 -14 -2 -21 0 -17
7 4 6 9 29 12 50 4 31 1 42 -13 50 -14 8 -16 12 -5 22 6 7 12 22 12 32 0 16
-6 18 -30 15 -20 -3 -30 0 -30 9 0 13 11 17 42 14 12 -2 15 4 11 18 -3 11 -11
17 -19 14 -23 -9 -37 7 -21 25 26 31 29 53 8 59 -19 5 -37 53 -20 53 5 0 9 9
9 20 0 11 -3 19 -7 19 -20 -3 -24 2 -13 16 10 12 9 15 -6 16 -17 0 -16 1 2 9
19 7 21 14 16 57 -3 26 -8 50 -13 53 -4 3 -10 25 -14 50 -8 66 -10 73 -23 98
-7 12 -10 22 -6 22 3 0 1 6 -5 13 -6 8 -8 17 -4 20 3 4 1 7 -5 7 -7 0 -12 7
-12 15 0 18 17 20 23 3 3 -10 8 -10 16 -2 13 12 14 32 7 74 -2 14 -5 31 -5 38
-1 6 -11 12 -24 12 -21 0 -57 30 -57 48 0 4 9 13 19 19 17 11 20 9 23 -12 2
-18 7 -22 16 -16 12 7 11 13 -2 38 l-15 30 35 -3 c30 -2 33 0 23 12 -7 8 -18
13 -26 10 -18 -7 -17 19 2 34 8 7 12 16 9 22 -3 5 -11 5 -19 -2 -8 -7 -15 -7
-19 -1 -9 14 11 61 26 61 7 0 1 8 -12 17 -14 9 -27 18 -30 20 -2 2 2 8 10 13
12 8 12 10 -3 10 -11 0 -21 -9 -24 -20 -3 -11 -14 -20 -24 -20 -23 0 -25 18
-4 26 8 4 15 10 15 15 0 5 -7 9 -15 9 -17 0 -21 45 -5 55 14 8 13 68 -2 100
-10 22 -9 28 2 35 12 7 12 10 -3 16 -22 8 -22 40 0 48 15 6 14 9 -6 29 -22 21
-23 21 -36 3 -8 -10 -16 -24 -18 -30 -6 -18 -33 16 -31 40 1 11 4 37 8 57 4
21 2 45 -4 57 -7 13 -7 20 0 20 15 0 13 123 -2 138 -10 10 -10 14 0 21 11 6
11 17 1 55 -9 37 -9 52 1 71 15 29 8 104 -12 116 -11 7 -11 9 0 9 9 0 12 10
11 28 -2 15 0 33 5 40 4 7 1 14 -8 18 -20 8 -21 34 -1 34 8 0 15 5 15 12 0 6
-3 8 -7 5 -3 -4 -12 -2 -20 4 -10 9 -13 4 -13 -30 0 -22 -5 -41 -11 -41 -6 0
-10 -10 -9 -22 4 -44 -3 -53 -9 -13 -4 26 -2 43 5 47 9 6 9 20 2 50 -8 36 -6
44 8 55 10 7 23 13 30 13 7 0 12 9 11 20 -1 14 -8 20 -24 20 -13 0 -26 7 -29
15 -4 8 -11 15 -16 15 -6 0 -7 -7 -4 -15z m-5031 -5876 c-4 -68 -2 -84 11 -91
9 -5 16 -18 16 -30 0 -14 5 -18 15 -14 10 3 15 -1 15 -13 0 -23 45 -65 64 -58
15 6 53 -29 43 -40 -4 -3 -3 -11 2 -17 15 -18 1 -68 -16 -61 -12 4 -14 0 -10
-15 7 -28 -1 -25 -40 15 -19 19 -29 35 -23 35 23 0 8 19 -20 25 -21 5 -30 12
-30 27 0 11 -5 18 -12 16 -7 -3 -13 -12 -12 -21 3 -69 5 -81 12 -72 6 9 15 11
38 6 4 0 1 -8 -6 -16 -7 -8 -16 -12 -21 -10 -4 3 -15 -8 -24 -25 -8 -16 -13
-30 -11 -30 3 0 -6 -16 -19 -36 -14 -20 -25 -51 -25 -68 0 -21 -7 -36 -20 -44
-26 -16 -46 -6 -30 13 7 8 8 19 4 26 -5 8 -10 6 -18 -7 -6 -11 -11 -22 -12
-26 -1 -5 -3 -10 -4 -13 -1 -3 -3 -9 -4 -14 -2 -17 -15 -24 -31 -17 -10 3 -13
11 -9 18 5 7 9 19 11 28 1 8 5 31 8 50 4 19 10 44 15 55 13 31 23 130 24 233
1 77 4 92 16 90 9 -2 15 -15 16 -33 2 -49 3 -50 20 -27 9 13 15 39 13 60 -1
20 1 44 5 52 4 9 6 25 5 35 -1 11 -1 37 -1 59 2 33 4 37 17 26 12 -10 15 -9
15 4 0 10 4 15 9 12 4 -3 6 -42 4 -87z m-120 -1964 c-3 -8 -9 -15 -14 -15 -5
0 -9 -10 -9 -22 0 -13 -6 -35 -14 -49 -7 -14 -16 -38 -20 -54 -4 -15 -22 -44
-40 -64 -19 -20 -54 -61 -78 -91 -66 -82 -338 -310 -370 -310 -4 0 -8 5 -8 10
0 6 5 10 10 10 21 0 282 258 318 315 14 22 33 45 42 52 10 7 23 27 31 45 7 18
15 35 18 38 3 3 21 28 40 55 19 28 45 62 59 77 26 28 46 29 35 3z"/>
<path d="M4955 11053 c-44 -6 -155 -43 -155 -53 0 -4 -12 -10 -27 -13 -16 -3
-44 -16 -63 -29 -28 -19 -35 -31 -37 -58 -2 -45 12 -61 46 -54 23 5 29 2 34
-15 4 -17 14 -20 68 -23 35 -2 81 1 103 5 23 4 43 4 50 -2 9 -7 16 -7 23 0 6
6 37 12 69 14 33 2 67 4 77 4 9 1 16 6 15 12 -2 6 6 16 16 22 46 28 56 42 56
78 0 91 -106 134 -275 112z"/>
<path d="M3765 11016 c-32 -9 -42 -19 -54 -50 -13 -35 -13 -39 2 -48 10 -5 15
-14 11 -19 -3 -6 3 -13 15 -16 12 -3 21 -10 21 -15 0 -5 4 -7 9 -3 6 3 15 -3
21 -12 7 -12 13 -14 16 -6 4 8 12 8 30 -2 14 -7 48 -13 75 -13 27 -1 53 -3 58
-6 14 -9 91 33 91 51 0 23 -71 85 -132 115 -67 33 -112 40 -163 24z"/>
<path d="M5860 10882 c0 -4 9 -13 20 -20 24 -15 26 -32 3 -32 -21 0 -9 -13 31
-34 16 -8 31 -23 32 -33 2 -9 8 -27 15 -40 9 -17 9 -29 1 -47 -9 -21 -8 -24
14 -29 25 -4 33 7 13 19 -8 5 -6 10 5 16 23 13 28 6 32 -37 2 -35 2 -36 -27
-30 -18 4 -29 3 -29 -4 0 -6 7 -11 15 -11 8 0 15 -8 15 -17 0 -14 3 -13 20 5
29 31 44 28 35 -5 -3 -16 -10 -29 -15 -31 -11 -4 -1 -44 15 -57 6 -5 15 -23
19 -40 7 -26 9 -27 17 -12 16 28 28 10 24 -38 -3 -39 -1 -45 16 -45 11 0 18
-4 14 -10 -3 -5 -12 -7 -20 -3 -10 3 -15 -1 -15 -12 0 -13 6 -16 25 -11 14 4
25 2 25 -3 0 -5 9 -7 20 -4 14 4 20 0 20 -10 0 -9 9 -19 20 -22 11 -3 20 -13
20 -21 0 -8 6 -24 13 -35 10 -17 10 -23 0 -26 -22 -8 -15 -32 7 -26 12 3 22
-1 26 -11 3 -9 15 -16 25 -16 23 0 24 -9 4 -24 -12 -9 -13 -18 -4 -48 5 -21
16 -38 24 -38 7 0 16 -6 18 -12 4 -10 6 -10 6 0 1 14 31 17 31 2 0 -5 -5 -10
-11 -10 -6 0 -8 -7 -5 -16 4 -10 -1 -22 -11 -30 -16 -12 -16 -13 -1 -14 9 0
18 5 20 12 3 7 10 8 17 4 11 -7 11 -10 0 -18 -10 -7 -11 -11 -2 -14 7 -3 9
-12 6 -21 -5 -12 -1 -14 15 -8 16 4 22 2 22 -8 0 -9 -6 -17 -12 -20 -10 -3
-10 -9 -1 -24 9 -16 9 -23 0 -33 -9 -10 -9 -14 1 -17 6 -3 12 -11 12 -18 0
-11 -6 -11 -29 3 -16 9 -27 20 -25 23 7 11 -14 59 -26 59 -5 0 -10 -6 -10 -14
0 -8 -4 -16 -9 -18 -17 -6 8 -48 29 -48 11 0 20 -4 20 -8 0 -11 -29 -49 -30
-38 0 5 -7 3 -15 -4 -13 -11 -15 -8 -15 19 0 26 -4 31 -22 30 -17 -1 -19 -2
-5 -6 21 -6 21 -8 0 -44 -13 -22 -22 -27 -38 -23 -28 9 -45 24 -45 41 0 10 -4
11 -19 3 -14 -7 -22 -7 -26 0 -4 6 -9 8 -13 6 -4 -2 -13 2 -20 10 -7 8 -8 14
-2 14 5 0 10 8 10 17 0 12 -3 14 -10 7 -17 -17 -72 -4 -77 17 -6 23 -23 25
-23 4 0 -10 -10 -15 -32 -15 -30 0 -31 1 -12 15 19 14 19 14 -2 15 -11 0 -25
-5 -32 -12 -9 -9 -12 -8 -12 4 0 20 -31 29 -55 16 -12 -7 -20 -7 -25 2 -5 9
-30 13 -72 13 -34 -1 -77 5 -94 12 -17 7 -37 9 -44 5 -7 -5 -24 -3 -37 3 -18
8 -27 7 -43 -8 -19 -18 -20 -17 -20 3 0 25 -4 26 -30 12 -13 -7 -21 -7 -25 0
-4 7 -12 7 -25 0 -30 -16 -49 -12 -43 8 4 16 -1 19 -29 18 -18 -1 -38 -5 -43
-8 -6 -4 -17 -3 -24 1 -7 5 -26 3 -42 -3 -21 -7 -32 -8 -37 0 -8 12 -118 12
-144 0 -10 -5 -25 -6 -33 -3 -8 4 -17 2 -20 -3 -4 -6 -15 -10 -26 -10 -13 0
-18 4 -13 12 5 8 -8 10 -49 5 -33 -3 -57 -2 -57 4 0 5 5 9 10 9 6 0 10 5 10
10 0 16 -19 11 -41 -11 -15 -15 -24 -18 -32 -10 -17 17 -27 13 -24 -11 2 -19
-3 -23 -25 -23 -15 0 -33 -6 -39 -12 -19 -19 -56 -16 -68 5 -9 16 -11 16 -25
-3 -25 -33 -19 -36 51 -29 55 6 68 4 78 -10 13 -17 55 -18 67 -1 5 6 12 5 20
-3 6 -6 24 -12 39 -12 15 0 34 -6 42 -14 11 -11 17 -12 26 -3 9 9 14 9 20 -2
7 -11 15 -9 42 10 19 13 34 19 36 12 3 -7 16 -7 45 2 34 9 50 9 85 -1 33 -10
43 -10 43 -1 0 7 5 4 11 -5 5 -10 18 -18 27 -18 13 0 14 -2 4 -9 -10 -6 -9
-13 6 -31 21 -26 46 -19 37 10 -5 15 1 18 35 22 23 2 43 2 45 0 2 -3 22 -5 45
-6 58 -3 100 -45 93 -92 -4 -22 -2 -34 6 -34 6 0 11 -10 12 -22 0 -13 3 -17 6
-10 2 6 11 12 18 12 8 0 18 7 23 16 6 10 25 16 58 17 44 2 49 0 52 -20 2 -13
7 -23 12 -23 4 0 6 -8 3 -18 -2 -10 5 -26 16 -36 19 -18 21 -18 47 3 25 19 29
20 43 6 22 -22 18 -140 -5 -149 -8 -3 -14 -15 -14 -26 0 -11 -4 -20 -8 -20 -4
0 -13 -14 -19 -30 -10 -27 -15 -30 -40 -24 -15 4 -29 10 -31 14 -8 20 -69 -2
-97 -35 -38 -43 -60 -44 -101 -4 l-33 32 -32 -27 c-29 -24 -38 -27 -77 -21
-61 9 -61 9 -117 76 -27 32 -52 59 -55 59 -3 0 -13 -14 -22 -30 -23 -40 -52
-49 -118 -40 -30 5 -80 10 -111 13 -52 5 -57 3 -67 -18 -15 -32 -55 -42 -243
-56 -122 -9 -162 -9 -173 0 -9 8 -21 9 -37 2 -38 -15 -358 -32 -380 -20 -10 5
-26 23 -35 40 -11 23 -18 28 -28 20 -20 -17 -168 -39 -219 -34 -40 5 -51 2
-84 -24 -52 -40 -128 -83 -148 -83 -8 0 -26 7 -39 15 -17 11 -30 13 -47 6 -20
-7 -30 -4 -54 18 -17 15 -35 37 -42 48 -20 35 -44 143 -39 172 3 14 8 42 11
61 9 69 36 163 50 177 21 21 19 46 -2 39 -10 -3 -36 -8 -58 -12 -22 -3 -50
-12 -62 -20 -12 -8 -29 -14 -37 -14 -7 0 -27 -15 -43 -32 -15 -18 -41 -41 -56
-51 -15 -9 -27 -24 -27 -32 0 -8 -4 -15 -9 -15 -12 0 -31 -85 -29 -127 0 -18
5 -33 10 -33 4 0 8 -7 8 -15 0 -8 4 -15 9 -15 5 0 14 -12 19 -27 6 -16 29 -47
51 -71 23 -23 41 -47 41 -52 0 -6 7 -10 15 -10 8 0 15 -7 15 -15 0 -8 3 -15 8
-15 4 0 23 -15 43 -34 20 -18 44 -36 53 -39 9 -4 16 -13 16 -22 0 -8 9 -15 19
-15 11 0 38 -18 60 -40 22 -22 43 -40 46 -40 3 0 20 -14 38 -31 49 -47 147
-111 237 -155 30 -14 67 -33 82 -40 40 -21 57 -17 63 14 6 25 14 60 30 120 4
13 2 29 -5 37 -8 10 -6 16 9 27 10 7 21 25 23 38 1 14 8 25 13 25 6 0 16 4 23
8 6 5 17 5 23 1 6 -3 15 -1 19 7 7 10 12 10 23 1 7 -7 17 -9 20 -5 4 3 12 1
19 -4 7 -6 34 -10 61 -9 26 0 47 -2 47 -6 0 -5 9 -8 19 -8 11 0 22 -6 25 -12
5 -10 7 -10 12 0 10 21 32 13 75 -27 22 -22 53 -41 67 -43 18 -2 28 -11 32
-28 4 -15 13 -24 23 -24 9 1 19 -7 22 -17 7 -22 23 -25 31 -6 8 21 123 12 146
-11 9 -9 7 -12 -11 -12 -12 0 -31 5 -42 10 -15 9 -21 7 -26 -7 -4 -10 -11 -21
-17 -25 -16 -10 -2 -19 32 -20 17 -1 33 -7 36 -14 3 -8 29 -12 77 -13 46 0 75
-5 80 -13 5 -8 11 -4 18 13 8 22 17 27 65 33 40 4 66 2 96 -10 38 -15 40 -18
36 -51 -5 -35 -5 -35 29 -29 28 6 34 4 29 -8 -5 -12 2 -15 31 -12 21 2 41 9
45 16 5 9 9 9 14 1 4 -6 12 -9 17 -6 5 4 12 -1 15 -9 4 -10 16 -14 32 -12 15
2 21 1 15 -1 -15 -5 -17 -29 -3 -38 6 -3 10 -2 10 3 0 6 9 8 19 5 17 -4 35
-35 32 -55 -2 -14 20 -8 25 7 5 11 10 12 26 4 16 -9 18 -13 7 -20 -11 -6 -9
-9 6 -15 11 -5 20 -3 23 4 2 7 11 12 20 12 15 0 15 2 2 11 -11 7 -4 9 27 7 23
-1 45 1 49 5 4 4 2 7 -4 7 -7 0 -12 7 -12 16 0 10 6 14 15 10 18 -6 19 -1 5
24 -7 13 -7 21 0 25 14 9 13 42 -2 47 -7 3 -9 11 -4 24 8 17 9 16 21 -10 7
-18 15 -24 19 -17 11 18 25 13 19 -8 -3 -11 -13 -21 -24 -24 -23 -6 -25 -40
-3 -58 14 -11 15 -10 12 11 -3 23 22 61 38 59 4 0 10 4 13 10 5 7 15 4 29 -9
25 -23 40 -27 22 -5 -10 12 -8 20 9 41 17 22 22 24 27 10 3 -9 10 -16 16 -16
5 0 7 4 3 9 -3 5 5 11 17 13 15 2 23 10 24 23 2 41 4 45 24 45 11 0 20 7 20
15 0 8 5 15 10 15 6 0 10 5 10 10 0 15 -19 12 -36 -5 -9 -8 -20 -15 -25 -15
-5 0 -9 7 -9 15 0 18 -17 20 -22 3 -2 -6 -10 -8 -17 -4 -15 10 15 35 42 36 10
0 15 5 12 10 -3 6 1 10 9 10 9 0 16 5 16 11 0 7 14 10 35 7 23 -3 35 0 35 8 0
7 8 15 18 17 13 4 12 5 -5 6 -12 0 -24 5 -27 10 -4 5 4 7 16 3 16 -4 19 -2 13
9 -6 11 -5 12 6 2 18 -18 39 -16 39 2 0 8 6 15 14 15 8 0 16 10 18 23 2 18 9
22 41 23 20 0 43 6 50 14 10 10 8 12 -10 7 -16 -4 -24 0 -29 15 -3 11 -1 25 5
31 8 8 11 6 11 -6 0 -9 4 -17 9 -17 17 0 23 20 11 35 -15 18 3 29 36 21 22 -6
24 -5 15 13 -15 27 -14 30 9 24 13 -4 20 0 20 9 0 27 77 72 123 72 23 1 42 6
43 11 0 6 7 24 14 40 l13 30 6 -24 c4 -14 13 -27 20 -29 10 -3 12 1 8 17 -4
11 -10 30 -13 41 -4 12 -2 20 5 20 6 0 11 -6 11 -13 0 -8 9 -22 19 -31 10 -9
17 -25 14 -34 -2 -9 3 -26 11 -37 14 -18 15 -18 16 -2 0 9 -4 17 -10 17 -14 0
-12 28 2 32 8 3 7 11 -5 28 -24 35 -22 58 3 29 16 -20 19 -21 20 -6 0 20 30
24 30 3 0 -9 8 -12 24 -9 18 4 22 10 18 25 -4 16 -10 19 -38 13 -30 -5 -34 -3
-40 20 -7 28 -14 31 -32 13 -16 -16 -28 -2 -13 16 15 18 63 27 79 14 9 -8 12
-6 12 5 0 8 7 28 15 43 8 16 15 36 14 44 0 13 -1 13 -6 0 -7 -17 -29 -40 -38
-40 -3 0 -3 6 2 13 4 6 6 20 5 30 -2 9 1 17 7 17 5 0 13 30 17 68 4 37 9 60
11 51 2 -9 15 -22 29 -29 14 -8 22 -19 19 -27 -3 -7 -8 -20 -11 -28 -3 -8 -1
-15 5 -15 6 0 11 -7 11 -15 0 -21 17 -19 24 3 3 9 3 4 0 -13 -3 -16 -6 -41 -6
-55 l0 -25 -12 24 c-12 21 -14 21 -20 6 -3 -10 0 -27 7 -39 7 -12 14 -36 15
-55 2 -26 -1 -32 -12 -28 -9 4 -18 2 -21 -3 -4 -6 1 -10 10 -10 12 0 15 -5 11
-16 -4 -11 -1 -14 11 -12 10 2 19 12 22 23 2 11 8 24 15 28 8 6 8 10 0 13 -8
3 -6 17 7 44 11 21 19 46 19 55 0 8 6 24 13 35 8 14 9 23 2 28 -6 4 -12 24
-14 45 -2 32 0 37 18 37 22 0 26 12 22 63 -2 20 2 27 16 27 17 1 17 1 -1 15
-17 13 -15 14 18 20 37 7 40 25 5 25 -29 0 -33 23 -9 65 22 39 20 50 -8 50 -9
0 -18 8 -20 18 -2 12 3 17 18 17 13 0 19 -4 14 -11 -4 -7 -1 -10 7 -7 8 3 13
15 11 29 -5 33 -10 36 -26 14 -12 -17 -13 -17 -20 8 -3 15 -10 27 -15 27 -5 0
-8 11 -7 25 2 14 -3 30 -10 36 -8 6 -11 15 -8 20 3 5 0 9 -6 9 -7 0 -9 8 -5
19 4 14 0 21 -15 26 -11 3 -20 13 -20 21 0 16 26 19 35 4 8 -13 25 -13 25 -1
0 5 -13 12 -30 16 -16 4 -32 15 -35 26 -7 22 -21 25 -28 7 -2 -7 -7 -10 -11
-6 -4 3 -2 16 4 29 11 19 10 25 -6 36 -10 7 -23 12 -29 9 -6 -2 -17 10 -24 26
-8 17 -22 33 -32 35 -11 3 -19 9 -19 14 0 24 -44 100 -55 95 -14 -5 -45 24
-45 42 0 8 -9 10 -26 6 -18 -5 -25 -3 -21 4 9 14 -16 59 -30 55 -7 -3 -15 7
-19 21 -3 14 -10 26 -14 26 -4 0 -11 12 -14 26 -5 19 -10 24 -18 16 -8 -8 -17
-2 -32 21 -12 18 -32 33 -44 35 -17 3 -21 8 -17 23 5 14 2 19 -14 19 -11 0
-23 5 -27 11 -3 6 -14 9 -24 6 -24 -6 -50 11 -50 33 0 14 -6 19 -22 17 -13 -1
-23 4 -23 11 0 22 -55 56 -55 34z"/>
<path d="M3075 10592 c23 -17 5 -45 -35 -57 -50 -13 -59 -22 -40 -41 7 -7 7
-21 -1 -42 -11 -32 -33 -42 -42 -19 -3 7 -6 4 -6 -7 -1 -27 -52 -117 -85 -149
-22 -23 -26 -31 -15 -37 11 -7 10 -12 -4 -28 -9 -10 -17 -24 -17 -30 0 -7 -4
-12 -10 -12 -5 0 -10 9 -10 20 0 17 -3 19 -18 11 -14 -7 -19 -23 -21 -62 -1
-29 -8 -58 -17 -66 -7 -8 -14 -25 -14 -38 0 -13 -4 -27 -10 -30 -5 -3 -10 -19
-10 -36 0 -16 -9 -38 -20 -49 -22 -22 -26 -40 -10 -40 7 0 7 -7 0 -20 -8 -14
-8 -31 0 -58 5 -20 10 -51 10 -68 0 -26 37 -84 53 -84 9 0 14 49 6 61 -4 7 -5
18 -1 24 4 5 7 15 7 20 0 21 68 147 81 152 8 3 14 16 14 29 0 13 9 28 20 34
11 6 18 15 14 21 -3 5 8 24 26 42 27 28 29 33 15 43 -15 11 -15 14 0 37 9 14
25 27 35 30 22 6 26 37 8 55 -9 9 -8 12 5 12 9 0 17 6 17 14 0 8 7 16 15 20 8
3 15 10 15 16 0 5 -7 10 -15 10 -8 0 -15 5 -15 10 0 6 4 10 8 10 4 0 14 20 21
45 7 25 17 42 22 39 15 -9 10 25 -7 52 -9 13 -14 27 -10 31 3 3 6 1 6 -7 0
-10 3 -10 15 0 10 9 15 9 15 1 0 -6 5 -11 10 -11 16 0 12 57 -5 64 -21 8 -19
28 3 24 27 -4 42 11 42 43 0 25 -4 29 -27 29 -16 0 -23 -4 -18 -8z"/>
<path d="M8753 9341 c-10 -15 -10 -21 0 -25 7 -3 -1 -3 -18 1 -25 5 -28 3 -17
-8 6 -7 12 -21 12 -31 0 -11 9 -28 20 -40 23 -25 28 -88 6 -88 -20 0 -28 -40
-10 -47 8 -3 13 -11 10 -19 -3 -7 1 -18 9 -24 8 -7 17 -38 21 -71 4 -33 10
-62 14 -64 5 -3 6 -14 3 -26 -8 -29 26 -87 48 -82 11 3 20 -3 25 -19 7 -23 7
-22 15 7 5 16 6 39 3 52 -3 12 -7 39 -9 60 -1 21 -10 72 -19 113 -8 41 -21
101 -28 133 -8 40 -16 57 -27 57 -14 0 -14 2 -2 9 11 7 12 13 4 23 -6 7 -15
33 -20 57 -9 50 -22 60 -40 32z"/>
<path d="M8813 8263 c-7 -2 -13 -12 -13 -21 0 -8 -7 -24 -17 -34 -15 -17 -15
-19 2 -38 16 -18 16 -20 1 -26 -16 -6 -23 -34 -7 -34 12 0 0 -54 -15 -63 -9
-5 -11 -31 -8 -97 2 -54 0 -90 -6 -90 -5 0 -8 -28 -5 -67 2 -38 0 -73 -6 -80
-6 -7 -8 -17 -5 -22 4 -5 2 -12 -4 -16 -5 -3 -10 -16 -10 -29 0 -20 5 -23 35
-21 39 3 55 12 39 23 -19 12 -26 49 -11 64 7 7 17 26 21 41 7 29 26 37 26 11
0 -8 5 -12 11 -8 7 4 10 27 7 60 -3 38 -1 58 9 65 10 9 13 8 13 -2 0 -12 2
-12 9 0 6 9 4 19 -6 29 -8 8 -12 23 -10 33 3 11 1 19 -3 19 -4 0 -6 9 -3 20 3
11 10 20 16 20 6 0 8 3 4 6 -3 4 1 13 9 22 12 12 14 29 9 85 -7 72 -21 107
-42 107 -7 0 -13 11 -13 25 0 25 -4 28 -27 18z"/>
<path d="M8766 7582 c-3 -6 -3 -17 0 -25 3 -9 -2 -20 -15 -26 -28 -15 -31 -14
-31 11 l0 21 -20 -23 c-23 -27 -27 -80 -6 -80 8 0 16 -11 20 -23 7 -29 -17
-162 -33 -181 -9 -10 -8 -16 4 -26 20 -16 19 -46 -1 -54 -9 -3 -14 -16 -13
-28 1 -13 -1 -36 -6 -51 -7 -25 -12 -28 -36 -25 -23 4 -29 1 -29 -13 0 -21 16
-33 25 -19 3 5 13 10 22 10 11 0 14 -7 11 -25 -7 -34 7 -31 24 5 7 17 17 29
23 26 13 -5 16 46 3 62 -8 9 -6 12 5 12 21 0 11 27 -11 33 -12 3 -11 5 4 6 12
0 24 8 28 16 3 8 12 15 19 15 8 0 22 9 32 20 17 18 17 21 -3 59 -12 22 -17 41
-12 43 16 5 15 119 -1 128 -7 5 -10 13 -5 17 5 4 11 2 13 -4 3 -7 8 -13 13
-13 9 0 24 57 22 83 -2 23 -38 61 -46 49z"/>
<path d="M9485 7533 c-7 -47 -24 -135 -29 -148 -9 -29 -21 -52 -37 -72 -9 -13
-20 -44 -24 -70 -4 -26 -18 -67 -31 -92 -13 -26 -25 -68 -26 -96 -2 -27 -8
-56 -15 -62 -6 -7 -14 -32 -18 -55 -4 -24 -12 -48 -17 -55 -5 -7 -11 -36 -13
-65 -2 -29 -11 -70 -19 -90 -9 -21 -16 -46 -16 -57 0 -11 -8 -36 -19 -54 -17
-31 -17 -34 -2 -45 14 -10 14 -11 -5 -11 -51 -2 -50 -166 1 -166 11 0 20 -7
20 -15 0 -8 -8 -14 -17 -14 -24 2 -23 -5 7 -28 27 -21 35 -54 11 -45 -20 8
-27 -16 -12 -45 7 -13 11 -29 8 -36 -5 -16 35 -16 41 1 4 8 6 8 6 -2 1 -8 -7
-23 -16 -33 -16 -18 -16 -21 7 -63 22 -40 23 -49 14 -102 -5 -32 -8 -66 -6
-76 4 -20 22 -23 22 -3 0 12 20 26 36 26 11 0 2 -29 -11 -34 -18 -6 -10 -65
11 -82 19 -15 18 -45 -1 -38 -19 8 -19 -3 1 -23 8 -9 13 -22 10 -30 -15 -39
-19 -66 -7 -59 6 4 9 11 6 16 -6 9 25 23 33 15 3 -3 6 -21 6 -40 0 -19 4 -35
8 -35 4 0 17 -9 28 -20 16 -16 20 -17 20 -5 0 8 -4 15 -10 15 -5 0 -10 5 -10
10 0 17 22 11 41 -11 17 -19 17 -23 2 -55 -9 -19 -20 -34 -24 -34 -4 0 -9 -10
-12 -22 -5 -19 -8 -20 -23 -7 -10 8 -15 9 -11 2 4 -6 0 -19 -9 -27 -14 -15
-13 -16 7 -16 19 0 59 33 59 49 0 3 10 12 21 20 19 11 21 11 16 -2 -3 -9 1
-21 9 -28 8 -7 13 -18 10 -26 -3 -7 -1 -13 4 -13 6 0 10 9 10 20 0 11 6 20 14
20 10 0 14 15 15 55 0 30 -3 57 -8 59 -9 6 -7 48 4 89 5 20 4 27 -6 27 -11 0
-11 2 1 10 12 8 12 10 -3 16 -16 6 -16 8 -3 30 14 20 16 128 16 853 0 478 -4
832 -9 835 -5 3 -12 22 -15 41 -9 47 -33 46 -41 -2z"/>
<path d="M9390 7535 c0 -8 -7 -34 -15 -58 -8 -24 -16 -52 -18 -63 -2 -10 -8
-28 -14 -39 -6 -11 -16 -45 -24 -75 -7 -30 -18 -67 -25 -81 -11 -22 -10 -27 6
-37 16 -10 21 -9 29 7 20 36 44 116 43 139 -1 12 2 22 8 22 9 0 18 36 23 102
2 21 6 40 9 43 8 8 -3 55 -13 55 -5 0 -9 -7 -9 -15z"/>
<path d="M2210 6596 c0 -20 -4 -36 -10 -36 -5 0 -10 10 -10 22 l0 22 -16 -23
c-14 -19 -14 -25 -3 -31 9 -6 13 -34 14 -90 0 -66 4 -84 18 -91 9 -6 17 -18
17 -28 0 -10 3 -21 7 -24 10 -11 29 36 36 90 l6 50 -30 -3 c-27 -3 -29 -1 -29
31 0 23 5 35 14 35 28 0 26 98 -2 108 -8 2 -12 -9 -12 -32z"/>
<path d="M2041 6451 c-7 -5 -10 -14 -7 -20 4 -6 0 -14 -8 -17 -9 -3 -16 -16
-16 -28 0 -12 -7 -31 -15 -42 -8 -10 -15 -29 -15 -41 0 -12 -4 -23 -10 -25 -5
-1 -16 -19 -24 -40 -14 -34 -14 -38 4 -61 15 -18 17 -28 9 -33 -9 -5 -7 -11 6
-20 10 -7 15 -20 12 -28 -3 -8 1 -20 8 -26 8 -7 12 -16 9 -21 -3 -5 2 -9 12
-9 13 0 14 -3 4 -15 -14 -16 -7 -45 11 -45 6 0 9 9 6 20 -4 17 -2 20 14 15 10
-4 19 -3 19 2 0 4 9 14 21 21 12 8 19 10 17 5 -2 -4 -10 -20 -17 -35 -12 -23
-12 -30 0 -45 9 -11 10 -14 2 -9 -8 4 -13 1 -13 -8 0 -9 -7 -16 -15 -16 -8 0
-15 8 -15 17 0 12 -3 14 -10 7 -12 -12 3 -64 19 -64 5 0 7 -9 4 -20 -6 -24 3
-26 23 -5 22 21 33 19 46 -10 14 -31 28 -32 55 -2 24 25 33 61 35 130 0 26 4
50 9 53 5 2 13 22 19 44 14 52 0 110 -38 156 -23 28 -29 41 -21 50 8 10 6 19
-5 35 -15 22 -16 22 -22 3 -7 -18 -41 -54 -52 -54 -2 0 -1 11 2 24 8 31 -3 59
-19 52 -10 -4 -11 2 -5 25 5 16 6 29 3 29 -3 0 0 7 7 15 26 31 -12 59 -49 36z"/>
<path d="M1833 5934 c-13 -20 -23 -42 -23 -49 0 -8 -4 -17 -10 -20 -5 -3 -10
-17 -10 -31 0 -15 -6 -24 -16 -24 -12 0 -15 -7 -12 -30 3 -16 0 -30 -5 -30 -5
0 -4 -7 3 -15 11 -13 8 -15 -14 -15 -16 0 -26 5 -26 15 0 26 -27 16 -54 -19
-30 -41 -34 -62 -8 -50 9 4 35 7 58 6 35 -2 42 2 52 23 6 14 19 25 27 25 13 0
13 -4 -2 -27 -11 -17 -14 -28 -7 -30 6 -2 20 -10 30 -18 17 -13 18 -14 2 -15
-10 0 -18 -8 -18 -17 -1 -10 -9 -36 -19 -58 l-19 -39 -4 29 c-3 27 -4 28 -20
12 -9 -9 -19 -22 -21 -29 -4 -10 -8 -9 -16 2 -20 29 -36 -7 -37 -81 -1 -49 -6
-75 -18 -88 -9 -10 -14 -24 -11 -32 5 -14 -53 -59 -75 -59 -5 0 -10 -4 -10
-10 0 -5 4 -10 10 -10 5 0 8 -19 7 -42 -1 -24 1 -49 3 -57 7 -20 -40 -44 -57
-29 -19 15 -17 -9 2 -28 13 -13 13 -18 0 -37 -7 -12 -16 -34 -19 -48 -6 -36
-34 -89 -47 -89 -5 0 -4 -6 3 -14 7 -8 15 -14 18 -14 19 1 18 -5 -4 -29 -14
-15 -28 -41 -32 -58 -3 -16 -16 -40 -27 -53 -18 -20 -19 -24 -7 -32 11 -7 19
-2 29 20 11 22 20 29 33 24 15 -4 18 0 18 25 0 17 -7 34 -16 39 -14 8 -13 10
5 15 12 3 21 0 21 -6 0 -15 31 21 54 63 11 19 24 43 30 52 8 13 6 22 -8 36
-13 15 -14 22 -5 28 7 4 15 2 17 -4 5 -17 32 12 32 35 0 22 63 69 69 51 2 -7
-1 -14 -8 -16 -6 -2 -9 -8 -5 -13 3 -5 -2 -9 -12 -9 -12 0 -15 -6 -11 -22 4
-13 -2 -32 -14 -49 -23 -33 -24 -43 -3 -35 9 3 14 3 12 -1 -2 -5 -15 -32 -28
-60 -14 -29 -31 -53 -37 -53 -7 0 -13 -6 -13 -13 0 -7 -16 -36 -35 -65 -20
-29 -33 -57 -30 -62 3 -6 0 -10 -8 -10 -8 0 -18 -11 -21 -24 -3 -14 -15 -28
-26 -31 -11 -4 -20 -15 -20 -26 0 -11 -4 -17 -10 -14 -5 3 -10 -1 -10 -10 0
-9 -20 -35 -44 -58 -25 -23 -50 -54 -55 -69 -7 -18 -18 -28 -31 -28 -24 0 -27
-18 -4 -27 9 -3 24 3 35 16 16 17 24 19 34 11 8 -7 19 -9 25 -5 5 3 10 1 10
-4 0 -6 5 -11 10 -11 6 0 10 6 10 13 0 8 18 13 52 14 151 4 191 24 297 148 19
22 41 50 49 63 14 21 13 24 -7 38 -25 18 -28 34 -5 34 12 0 14 7 9 31 -6 28
-5 30 14 24 13 -4 21 -2 21 5 0 6 16 35 35 65 21 34 36 71 39 97 5 49 28 128
37 128 4 0 6 17 5 38 -2 25 6 53 24 87 21 38 29 69 33 125 2 41 8 84 13 94 5
13 4 17 -4 12 -19 -11 -41 54 -29 87 5 15 7 31 4 34 -3 3 5 15 19 27 18 16 21
25 14 36 -9 13 -12 13 -21 -3 -10 -17 -12 -17 -33 6 -12 13 -29 26 -37 29 -11
4 -12 9 -1 27 29 50 5 120 -48 138 -25 9 -29 12 -13 12 58 2 85 44 55 89 -22
35 -45 62 -52 62 -3 -1 -15 -17 -27 -36z"/>
<path d="M2248 5369 c-10 -17 -18 -39 -18 -48 0 -10 -3 -21 -7 -25 -7 -7 -16
-31 -63 -169 -17 -49 -28 -92 -25 -97 3 -4 -2 -13 -10 -20 -8 -7 -15 -19 -15
-28 0 -11 8 -8 30 13 17 16 30 35 30 42 0 7 4 21 9 31 53 99 101 236 101 290
0 50 -9 53 -32 11z"/>
<path d="M7788 3881 c-10 -9 -15 -26 -13 -36 5 -22 -25 -91 -37 -87 -5 1 -18
2 -29 2 -18 0 -19 2 -9 15 10 11 10 18 1 29 -9 11 -9 15 0 18 9 3 8 12 -3 32
l-15 29 -11 -32 c-7 -19 -7 -31 -1 -31 7 0 7 -104 0 -139 -1 -2 -7 2 -15 8
-17 15 -27 2 -24 -31 3 -33 -21 -88 -38 -88 -10 0 -14 -14 -14 -46 0 -43 -2
-46 -23 -40 -43 10 -62 -3 -75 -52 -13 -49 -24 -110 -23 -127 6 -58 14 -104
23 -122 8 -16 8 -29 1 -46 -7 -15 -8 -29 -2 -38 5 -8 9 -28 9 -44 0 -17 5 -36
12 -43 7 -7 13 -38 14 -70 3 -75 14 -134 28 -151 9 -12 8 -13 -6 -8 -26 9 -23
-25 2 -41 17 -10 25 -10 43 3 29 20 32 19 35 -10 1 -19 -4 -26 -23 -31 -28 -7
-32 -19 -10 -28 17 -6 20 -61 4 -72 -8 -4 -7 -9 2 -15 11 -6 11 -12 0 -32 -7
-14 -10 -34 -6 -46 9 -28 35 -28 32 1 -1 15 6 26 24 35 42 20 64 52 64 92 0
31 4 36 25 39 34 5 52 22 47 44 -3 10 -1 21 4 24 5 3 9 14 9 25 0 12 16 40 35
63 41 51 44 80 10 102 -23 15 -24 19 -12 38 12 18 12 24 -5 47 -15 20 -18 31
-10 45 5 11 13 49 17 86 3 37 11 70 15 73 11 7 1 35 -12 35 -17 0 -68 -64 -68
-86 0 -11 -3 -24 -6 -27 -12 -11 -43 -110 -50 -157 -4 -25 -11 -53 -16 -63 -7
-14 -5 -22 9 -33 13 -10 14 -13 4 -14 -8 0 -22 -7 -32 -16 -32 -29 -40 -8 -33
87 4 68 3 94 -8 106 -10 13 -10 17 0 20 6 3 12 15 12 27 0 13 9 31 20 41 11
10 20 26 20 37 0 10 7 18 15 18 11 0 15 11 15 39 0 22 4 42 8 45 5 3 9 22 10
42 1 20 8 41 16 48 10 7 16 30 17 66 0 30 3 75 6 98 4 40 7 43 27 38 23 -6 23
-5 25 112 2 64 3 126 4 137 1 41 -3 75 -10 74 -5 0 -16 -8 -25 -18z"/>
<path d="M760 3280 c0 -18 -3 -19 -20 -10 -14 7 -20 7 -20 0 0 -5 5 -10 10
-10 6 0 10 -11 10 -25 0 -14 5 -25 11 -25 8 0 8 -4 2 -12 -6 -7 -10 -20 -10
-28 0 -8 -3 -25 -7 -37 -8 -26 2 -29 30 -8 23 17 34 19 34 5 0 -5 -7 -10 -15
-10 -9 0 -15 -9 -15 -23 0 -34 10 -39 30 -14 10 12 22 18 27 14 4 -5 0 -13
-10 -18 -22 -13 -22 -25 2 -50 12 -13 21 -17 26 -10 3 6 3 11 -2 11 -4 0 0 5
10 11 13 7 16 18 12 42 -4 29 -4 30 9 15 17 -23 26 -23 26 2 0 11 7 20 15 20
8 0 15 7 15 15 0 18 -12 19 -27 4 -8 -8 -13 -8 -17 0 -4 6 -3 11 3 11 7 0 7 8
-1 25 -14 31 -25 32 -31 3 l-4 -23 -8 22 c-4 12 -13 19 -20 17 -9 -4 -15 8
-20 38 -6 35 -9 39 -16 23 -6 -16 -8 -14 -8 13 -1 34 -21 46 -21 12z"/>
</g>
</svg>
